<?xml version="1.0" standalone="no"?>
<!DOCTYPE svg PUBLIC "-//W3C//DTD SVG 1.1//EN" "http://www.w3.org/Graphics/SVG/1.1/DTD/svg11.dtd" >
<svg xmlns="http://www.w3.org/2000/svg" xmlns:xlink="http://www.w3.org/1999/xlink" version="1.1">
<metadata></metadata>
<defs>
<font id="suisse_worksbook" horiz-adv-x="1736" >
<font-face units-per-em="2048" ascent="1585" descent="-463" />
<missing-glyph horiz-adv-x="528" />
<glyph horiz-adv-x="0" />
<glyph horiz-adv-x="682" />
<glyph unicode=" "  horiz-adv-x="528" />
<glyph unicode="&#x09;" horiz-adv-x="528" />
<glyph unicode="&#xa0;" horiz-adv-x="528" />
<glyph unicode="!" horiz-adv-x="763" d="M229 125q0 61 45 106t107 45q63 0 107 -44.5t44 -106.5t-44 -107t-107 -45q-61 0 -106.5 45.5t-45.5 106.5zM258 1030v455q0 37 61 52t122 0t61 -52v-457l-101 -594h-41z" />
<glyph unicode="&#x22;" horiz-adv-x="765" d="M90 1485h240l-76 -524h-88zM440 1485h240l-76 -524h-88z" />
<glyph unicode="#" horiz-adv-x="1454" d="M86 465l18 133h289l49 350h-288l16 133h291l57 404h139l-57 -404h348l58 404h139l-58 -404h281l-18 -133h-281l-49 -350h280l-20 -133h-279l-65 -465h-141l65 465h-346l-63 -465h-142l66 465h-289zM532 598h347l51 350h-348z" />
<glyph unicode="$" horiz-adv-x="1304" d="M68 399h229q2 -132 78 -227.5t205 -118.5v623l-54 14q-62 18 -117.5 42.5t-111.5 62.5t-96 84t-65 109.5t-25 135.5q0 91 37 165t101 122t148.5 75t182.5 32v213h96v-213q192 -14 330.5 -125t156.5 -299h-229q-2 139 -67.5 233.5t-190.5 114.5v-563l65 -19 q78 -21 139.5 -44t126.5 -61t108.5 -83.5t71 -112t27.5 -145.5q0 -106 -42.5 -190t-117 -137t-170.5 -82t-208 -32v-182h-96v186q-93 9 -178.5 40t-157.5 81.5t-119.5 128.5t-56.5 172zM291 1186q0 -197 289 -281v539q-78 -4 -135.5 -26.5t-90 -59t-48 -79t-15.5 -93.5z M676 47q166 5 258 79t92 216q0 67 -24 117t-72 85t-102.5 57.5t-133.5 43.5l-18 4v-602z" />
<glyph unicode="%" horiz-adv-x="2136" d="M57 1071q0 177 98 305.5t244 128.5q98 0 177 -60.5t122 -159.5t43 -214t-43 -214t-122 -160.5t-177 -61.5q-97 0 -176 61t-122.5 161t-43.5 214zM238 1071q0 -78 7.5 -143t24.5 -124.5t50 -93.5t79 -34t79.5 34t50.5 93.5t24.5 125t7.5 142.5q0 78 -7.5 143.5t-25 124 t-50.5 92t-79 33.5t-79 -33t-50 -92t-24.5 -124t-7.5 -144zM481 0l1041 1485h135l-1039 -1485h-137zM1395 422q0 177 98 305.5t244 128.5q98 0 177 -60.5t122 -159.5t43 -214t-43 -214t-122 -160.5t-177 -61.5q-97 0 -176 61t-122.5 161t-43.5 214zM1575 422 q0 -77 7.5 -142.5t24.5 -125t50.5 -93.5t79.5 -34t79 34t50 93.5t24.5 124.5t7.5 143q0 79 -7.5 144t-24.5 124t-50 92t-79 33t-79 -33.5t-50.5 -92t-25 -124t-7.5 -143.5z" />
<glyph unicode="&#x26;" horiz-adv-x="1482" d="M78 432q0 68 24 128t61.5 103.5t93 82t109 64t119.5 50.5q-155 192 -155 342q0 148 106.5 233t276.5 85q145 0 243.5 -72t98.5 -201q0 -57 -27.5 -111t-75.5 -97.5t-104 -78t-121 -61.5l397 -455q88 208 66 474h160q-11 -285 -166 -541l233 -266l-157 -134l-197 222 q-105 -119 -210 -172.5t-251 -53.5q-224 0 -374 134.5t-150 324.5zM317 475q0 -172 92.5 -286.5t252.5 -114.5q205 0 348 186l-490 559l-2 2q-95 -44 -148 -140.5t-53 -205.5zM524 1270q0 -84 41 -157.5t127 -174.5q226 106 226 307q0 100 -56 151.5t-153 51.5 q-90 0 -137.5 -51t-47.5 -127z" />
<glyph unicode="'" horiz-adv-x="417" d="M90 1485h240l-76 -524h-88z" />
<glyph unicode="(" horiz-adv-x="636" d="M113 565q0 335 115 620.5t335 459.5l29 -37q-79 -76 -132.5 -192t-80 -261t-37 -283.5t-10.5 -306.5q0 -167 10.5 -305.5t37 -283.5t80 -261t132.5 -192l-29 -35q-220 174 -335 459t-115 618z" />
<glyph unicode=")" horiz-adv-x="636" d="M47 -477q79 76 133 192.5t81 260.5t37.5 283.5t10.5 305.5q0 131 -6 243.5t-23.5 236t-45.5 222.5t-75.5 189.5t-111.5 151.5l29 37q221 -174 335.5 -459t114.5 -621q0 -334 -114.5 -618.5t-335.5 -458.5z" />
<glyph unicode="*" horiz-adv-x="774" d="M51 1217l33 108l244 -84v246h114v-246l246 82l39 -106l-246 -80l150 -209l-90 -68l-154 211l-149 -209l-95 66l148 207z" />
<glyph unicode="+" horiz-adv-x="1388" d="M127 494v139h494v469h147v-469h494v-139h-494v-494h-147v494h-494z" />
<glyph unicode="," horiz-adv-x="724" d="M137 -381q85 66 154 163.5t69 190.5q-63 2 -106 43.5t-43 106.5q0 64 44.5 108.5t109.5 44.5q68 0 109.5 -48t41.5 -124q0 -138 -111.5 -289t-252.5 -221z" />
<glyph unicode="-" horiz-adv-x="790" d="M111 475v182h571v-182h-571z" />
<glyph unicode="." horiz-adv-x="729" d="M213 125q0 61 45 106t107 45q63 0 107 -44.5t44 -106.5t-44 -107t-107 -45q-61 0 -106.5 45.5t-45.5 106.5z" />
<glyph unicode="/" horiz-adv-x="815" d="M0 -66l702 1655h113l-709 -1655h-106z" />
<glyph unicode="0" horiz-adv-x="1355" d="M102 750q0 113 23 223t71 209t115 174.5t162 119.5t205 44q92 0 174 -31t144 -86t111.5 -128.5t81 -159.5t48 -178.5t16.5 -186.5q0 -114 -23 -225t-70.5 -210.5t-114.5 -175.5t-162 -121t-205 -45t-205 45t-162 121t-115 175.5t-71 210.5t-23 225zM344 750 q0 -132 17 -250t54 -223t104.5 -167.5t158.5 -62.5q73 0 131 42t95 110.5t61.5 162t34.5 189.5t10 199t-10 198t-34.5 187.5t-61.5 160t-95 109t-131 41.5t-131.5 -41.5t-96 -109t-62 -160t-34.5 -187.5t-10 -198z" />
<glyph unicode="1" horiz-adv-x="935" d="M113 1262v49q187 18 289 67t169 140h45v-1221q0 -47 0.5 -72t3.5 -55t7 -44t14.5 -31t22.5 -23.5t33 -15t45.5 -12t60.5 -7.5v-37h-629v41q46 5 74.5 8.5t55.5 12t41 14t26.5 23t17 29.5t8 43t4 54t0.5 72v965h-288z" />
<glyph unicode="2" horiz-adv-x="1067" d="M-6 0v33q399 402 553.5 627.5t154.5 400.5q0 149 -74 223t-208 74q-125 0 -214.5 -70t-115.5 -188h-59q35 200 161.5 310t319.5 110q84 0 158.5 -23t133.5 -67t93.5 -115.5t34.5 -161.5q0 -80 -27.5 -159.5t-84.5 -162t-115 -150.5t-148 -161q-33 -35 -137.5 -146 t-161.5 -169h703v-205h-967z" />
<glyph unicode="3" horiz-adv-x="1101" d="M63 1100q35 199 161.5 309.5t320.5 110.5q165 0 273 -75.5t108 -205.5q0 -73 -49.5 -148t-114.5 -127t-137 -90v-6q372 -132 372 -440q0 -103 -48.5 -190.5t-127.5 -144.5t-176.5 -88.5t-198.5 -31.5q-108 0 -213.5 18t-160.5 42v313h41q36 -128 133.5 -209.5 t226.5 -81.5q137 0 220 79.5t83 209.5q0 32 -6.5 65.5t-22 76t-46 81t-73 73.5t-109.5 62t-150 39v45l47 21q97 40 166 104t97 122t28 108q0 100 -66.5 159.5t-194.5 59.5q-119 0 -208.5 -71t-114.5 -189h-60z" />
<glyph unicode="4" horiz-adv-x="1228" d="M8 401v48l715 1036h178v-903h264v-181h-264v-401h-217v401h-676zM211 582h473v688z" />
<glyph unicode="5" horiz-adv-x="1091" d="M51 47v322h41q35 -153 132.5 -233.5t224.5 -80.5q128 0 216.5 88t88.5 230q0 60 -15 112t-57.5 108t-111 100t-184 82t-267.5 59l229 651h651l-67 -205h-567l-93 -256q178 -26 312.5 -78t217.5 -123.5t124 -157t41 -184.5q0 -155 -80.5 -273t-204.5 -176.5t-266 -58.5 q-102 0 -204.5 21.5t-160.5 52.5z" />
<glyph unicode="6" horiz-adv-x="1243" d="M102 598q0 172 68 329t188.5 278.5t288 208t363.5 124.5l12 -51q-302 -80 -462 -242t-202 -416q63 75 151.5 117.5t184.5 42.5q194 0 320.5 -125t126.5 -346q0 -145 -67 -271t-182 -200t-249 -74q-171 0 -294.5 80t-185 220t-61.5 325zM344 625q0 -117 17.5 -218 t52.5 -183t94.5 -129.5t136.5 -47.5q130 0 194 103.5t64 281.5q0 62 -8.5 120t-29.5 116t-53 100.5t-82.5 69t-113.5 26.5q-69 0 -142.5 -25.5t-123.5 -68.5q-6 -71 -6 -145z" />
<glyph unicode="7" horiz-adv-x="1083" d="M53 1280v205h1008v-205q-90 -88 -155 -156.5t-137.5 -156t-122.5 -164t-97.5 -172t-74.5 -190t-42 -207t-12 -234.5h-242q2 133 31.5 259.5t69.5 224t113 202t130 173t154.5 158.5t153 136t157.5 127h-934z" />
<glyph unicode="8" horiz-adv-x="1280" d="M102 369q0 128 98.5 229t248.5 156q-281 160 -281 393q0 110 65.5 196t174 130.5t239.5 44.5q124 0 227.5 -36.5t168.5 -111.5t65 -176q0 -63 -27.5 -118.5t-76 -98t-103.5 -74.5t-121 -57l31 -15q63 -31 111.5 -59t99 -68t83 -82t53 -97t20.5 -117q0 -104 -46 -188.5 t-124 -137.5t-177 -81t-210 -28q-80 0 -154 15t-141 46.5t-116.5 77t-78.5 112t-29 145.5zM295 377q0 -145 85.5 -237.5t240.5 -92.5q162 0 258 74.5t96 193.5q0 105 -67 175.5t-222 144.5l-166 82l-14 6q-97 -46 -154 -134.5t-57 -211.5zM352 1217q0 -50 20.5 -92.5t61 -79 t86 -65t111.5 -60.5l98 -50q197 123 197 314q0 129 -77.5 194.5t-207.5 65.5q-129 0 -209 -65.5t-80 -161.5z" />
<glyph unicode="9" horiz-adv-x="1226" d="M82 985q0 145 67 268.5t181.5 195t249.5 71.5q130 0 232.5 -46t169.5 -129t102.5 -197.5t35.5 -252.5q0 -173 -68 -330t-188 -278t-287.5 -207.5t-363.5 -124.5l-12 51q301 81 461 243t200 415q-61 -76 -150 -119t-184 -43q-192 0 -319 131t-127 352zM319 1061 q0 -62 8.5 -120t29.5 -116t53 -100.5t82.5 -69t113.5 -26.5q70 0 142.5 25t121.5 69q9 67 9 145q0 117 -17.5 218t-52.5 183t-94.5 129.5t-136.5 47.5q-130 0 -194.5 -104t-64.5 -281z" />
<glyph unicode=":" horiz-adv-x="731" d="M213 125q0 61 45 106t107 45q63 0 107 -44.5t44 -106.5t-44 -107t-107 -45q-61 0 -106.5 45.5t-45.5 106.5zM213 965q0 61 45 106t107 45q63 0 107 -44.5t44 -106.5t-44 -107t-107 -45q-61 0 -106.5 45.5t-45.5 106.5z" />
<glyph unicode=";" horiz-adv-x="724" d="M137 -381q85 66 154 163.5t69 190.5q-63 2 -106 43.5t-43 106.5q0 64 44.5 108.5t109.5 44.5q68 0 109.5 -48t41.5 -124q0 -138 -111.5 -289t-252.5 -221zM213 965q0 61 45 106t107 45q63 0 107 -44.5t44 -106.5t-44 -107t-107 -45q-61 0 -106.5 45.5t-45.5 106.5z" />
<glyph unicode="&#x3c;" horiz-adv-x="1388" d="M137 494v135l1067 485v-162l-891 -391l891 -387v-160z" />
<glyph unicode="=" horiz-adv-x="1388" d="M199 289v141h993v-141h-993zM199 713v139h993v-139h-993z" />
<glyph unicode="&#x3e;" horiz-adv-x="1388" d="M186 14v160l893 387l-893 391v162l1067 -485v-135z" />
<glyph unicode="?" horiz-adv-x="1159" d="M168 1124v355q57 26 168.5 44.5t195.5 18.5q231 0 356.5 -79t125.5 -216q0 -78 -27.5 -146t-72 -119.5t-98 -100t-107 -96t-98 -97.5t-72 -116t-27.5 -140v-24h-59v18q0 99 23 186t57 147t74.5 121.5t74.5 111t57 115t23 134.5q0 112 -60 169.5t-170 57.5 q-254 0 -323 -344h-41zM340 125q0 61 45 106t107 45q63 0 107 -44.5t44 -106.5t-44 -107t-107 -45q-62 0 -107 45.5t-45 106.5z" />
<glyph unicode="@" horiz-adv-x="1732" d="M100 725q0 219 105.5 398.5t293 282.5t419.5 103q158 0 291.5 -42.5t233.5 -124t156 -208t56 -286.5q0 -122 -31.5 -223t-83 -165t-116.5 -99t-134 -35q-92 0 -150 60t-63 155q-49 -96 -132.5 -150.5t-196.5 -54.5q-130 0 -214.5 91t-84.5 269q0 126 52 237t152 181 t226 70q93 0 155.5 -53t87.5 -136l21 150h112l-65 -467q-8 -34 -4.5 -75.5t13 -77t37.5 -59.5t69 -24q96 0 160.5 108t64.5 292q0 177 -80 303t-218 188t-319 62q-201 0 -357.5 -89t-240.5 -242t-84 -343q0 -277 166 -451t445 -174q219 0 407 90l43 -118 q-100 -44 -223.5 -69.5t-228.5 -25.5q-218 0 -387.5 97t-261 267.5t-91.5 387.5zM586 692q0 -118 52 -177.5t144 -59.5q129 0 210 110.5t81 265.5q0 110 -50 170t-142 60q-129 0 -212 -108t-83 -261z" />
<glyph unicode="A" horiz-adv-x="1599" d="M10 0v37q37 3 60 8t46.5 22t38.5 35.5t37.5 63.5t41 89.5t51.5 129.5l440 1110q70 10 115 70h8l526 -1323q18 -45 28 -69t25 -51t27.5 -39t33 -23.5t44 -16t57.5 -6.5v-37h-600v37q110 12 140 47q15 17 15 45q0 29 -16 68l-112 286h-596l-10 -28q-38 -97 -59.5 -161 t-28.5 -111q-5 -31 -5 -53q-1 -12 1 -20q4 -26 27 -41.5t49.5 -21t76.5 -10.5v-37h-461zM461 584h514l-256 655z" />
<glyph unicode="B" horiz-adv-x="1478" d="M78 0v37q53 7 79.5 12t54 17t37.5 25.5t19.5 44.5t11 66.5t1.5 96.5v887q0 61 -1.5 96.5t-11 66.5t-19.5 44.5t-37.5 25.5t-54 17t-79.5 12v37h250q86 0 219 2t160 2q316 0 456 -82.5t140 -251.5q0 -127 -88.5 -222.5t-225.5 -135.5v-4q54 -11 105 -28.5t104 -48t92 -69 t63.5 -94t24.5 -119.5q0 -69 -19.5 -130.5t-67.5 -119t-121.5 -98.5t-188 -65.5t-260.5 -24.5q-25 0 -158 2t-233 2h-252zM520 143q0 -42 20.5 -57.5t73.5 -15.5h80q226 0 326 86.5t100 263.5q0 156 -87 233.5t-296 77.5h-217v-588zM520 803h213q90 0 155 25.5t101.5 70.5 t53 100t16.5 121q0 107 -35.5 169t-120 92t-233.5 30h-150v-608z" />
<glyph unicode="C" horiz-adv-x="1513" d="M102 752q0 176 64 323t173 245t253 152t305 54q240 0 438 -82l47 -451h-39q-56 243 -173 351t-310 108q-76 0 -146.5 -25t-134 -80.5t-110.5 -135.5t-74.5 -198.5t-27.5 -262.5q0 -317 138.5 -498.5t375.5 -181.5q103 0 191 31t149.5 83t103.5 111t66 125l55 -19 q-21 -82 -71 -157t-124 -136.5t-180 -98t-227 -36.5q-170 0 -311 61t-234.5 166.5t-145 247.5t-51.5 304z" />
<glyph unicode="D" horiz-adv-x="1638" d="M78 0v37q53 7 79.5 12t54 17t37.5 25.5t19.5 44.5t11 66.5t1.5 96.5v887q0 61 -1.5 96.5t-11 66.5t-19.5 44.5t-37.5 25.5t-54 17t-79.5 12v37h647q128 0 243.5 -25.5t220.5 -82.5t181 -141t121 -209t45 -279q0 -153 -43.5 -279t-119 -212t-179.5 -144.5t-222 -85.5 t-249 -27h-645zM520 74h201q256 0 403.5 174t147.5 500q0 323 -150.5 493t-406.5 170h-195v-1337z" />
<glyph unicode="E" horiz-adv-x="1464" d="M78 0v37q53 7 79.5 12t54 17t37.5 25.5t19.5 44.5t11 66.5t1.5 96.5v887q0 61 -1.5 96.5t-11 66.5t-19.5 44.5t-37.5 25.5t-54 17t-79.5 12v37h727q307 0 461 6l55 -459h-37q-17 54 -35 98t-40 79.5t-43 63t-50 48.5t-55.5 35.5t-65.5 24.5t-72.5 16t-85 9t-94.5 4 t-108 1h-115v-600h277q92 0 144.5 52.5t66.5 176.5h36v-548h-36q-14 124 -66.5 176.5t-144.5 52.5h-277v-557q0 -59 16.5 -76.5t77.5 -17.5h43q104 0 176.5 5t143 20t119 41t93.5 69.5t79.5 105t64.5 146.5h39l-80 -459q-156 2 -458 2h-756z" />
<glyph unicode="F" horiz-adv-x="1409" d="M78 0v37q53 7 79.5 12t54 17t37.5 25.5t19.5 44.5t11 66.5t1.5 96.5v887q0 61 -1.5 96.5t-11 66.5t-19.5 44.5t-37.5 25.5t-54 17t-79.5 12v37h776q307 0 459 6l57 -459h-37q-35 108 -77.5 178t-88.5 111t-125.5 60.5t-152.5 24.5t-205 5h-164v-600h281q92 0 144.5 52.5 t66.5 176.5h37v-548h-37q-14 124 -66.5 176.5t-144.5 52.5h-281v-424q0 -46 0.5 -69.5t3.5 -53.5t8.5 -43.5t17 -31.5t26.5 -24.5t39.5 -15.5t54 -12.5t71.5 -7.5v-39h-663z" />
<glyph unicode="G" horiz-adv-x="1673" d="M100 743q0 176 63 324t173 248t259 155.5t320 55.5q275 0 476 -78l39 -455h-37q-61 243 -185 351t-319 108q-79 0 -152 -23t-142 -76.5t-119 -133.5t-80.5 -203.5t-30.5 -276.5q0 -312 145 -500t385 -188q40 0 73 2t76.5 8.5t77 20.5t63.5 34.5t46 55t16 78.5v145v57 t-1.5 47t-4 40.5t-7.5 31.5t-11.5 26t-17 19t-23.5 15.5t-31 9.5t-39 7.5t-49 4.5v43h557v-43q-39 -5 -61.5 -14.5t-37.5 -23.5t-21.5 -46.5t-8.5 -68.5t-2 -105v-256q-116 -83 -291 -124.5t-328 -41.5q-184 0 -332.5 62t-243 169t-144.5 245t-50 294z" />
<glyph unicode="H" horiz-adv-x="1724" d="M78 0v37q53 7 79.5 12t54 17t37.5 25.5t19.5 44.5t11 66.5t1.5 96.5v887q0 61 -1.5 96.5t-11 66.5t-19.5 44.5t-37.5 25.5t-54 17t-79.5 12v37h645v-37q-53 -7 -79.5 -12t-54 -17t-37.5 -25.5t-19.5 -44.5t-11 -66.5t-1.5 -96.5v-375h684v375q0 61 -1.5 97t-11.5 66 t-19.5 44t-37.5 26t-54 17t-79 12v37h646v-37q-53 -7 -79 -12t-54 -17t-37.5 -26t-19.5 -44t-11.5 -66t-1.5 -97v-887q0 -61 1.5 -97t11.5 -66t19.5 -44t37.5 -26t54 -17t79 -12v-37h-646v37q53 7 79 12t54 17t37.5 26t19.5 44t11.5 66t1.5 97v422h-684v-422 q0 -61 1.5 -96.5t11 -66.5t19.5 -44.5t37.5 -25.5t54 -17t79.5 -12v-37h-645z" />
<glyph unicode="I" horiz-adv-x="800" d="M78 0v37q53 7 79.5 12t54 17t37.5 25.5t19.5 44.5t11 66.5t1.5 96.5v887q0 61 -1.5 96.5t-11 66.5t-19.5 44.5t-37.5 25.5t-54 17t-79.5 12v37h645v-37q-53 -7 -79.5 -12t-54 -17t-37.5 -25.5t-19.5 -44.5t-11 -66.5t-1.5 -96.5v-887q0 -61 1.5 -96.5t11 -66.5 t19.5 -44.5t37.5 -25.5t54 -17t79.5 -12v-37h-645z" />
<glyph unicode="J" horiz-adv-x="886" d="M23 2v285h22q23 -40 48.5 -77t58.5 -76.5t68.5 -63t66.5 -23.5q24 0 39 5.5t33 28.5t28.5 66t17.5 123t7 193v723q0 61 -1.5 96.5t-11 66.5t-19.5 44.5t-37.5 25.5t-54 17t-79.5 12v37h645v-37q-53 -7 -79.5 -12t-54 -17t-37.5 -25.5t-19.5 -44.5t-11 -66.5t-1.5 -96.5 v-707q0 -506 -387 -506q-58 0 -130 8.5t-111 20.5z" />
<glyph unicode="K" horiz-adv-x="1593" d="M78 0v37q53 7 79.5 12t54 17t37.5 25.5t19.5 44.5t11 66.5t1.5 96.5v887q0 61 -1.5 96.5t-11 66.5t-19.5 44.5t-37.5 25.5t-54 17t-79.5 12v37h645v-37q-53 -7 -79.5 -12t-54 -17t-37.5 -25.5t-19.5 -44.5t-11 -66.5t-1.5 -96.5v-887q0 -61 1.5 -96.5t11 -66.5 t19.5 -44.5t37.5 -25.5t54 -17t79.5 -12v-37h-645zM522 760l459 416q159 144 181 198q5 12 5 22q0 32 -53 44q-26 6 -65 8v37h485v-37q-96 -10 -166.5 -56t-269.5 -221l-357 -313l543 -614q105 -119 157 -159t134 -48v-37h-608v37q57 3 85 16.5t27 36.5t-15.5 47t-43.5 58z " />
<glyph unicode="L" horiz-adv-x="1288" d="M78 0v37q53 7 79.5 12t54 17t37.5 25.5t19.5 44.5t11 66.5t1.5 96.5v887q0 61 -1.5 96.5t-11 66.5t-19.5 44.5t-37.5 25.5t-54 17t-79.5 12v37h645v-37q-53 -7 -79.5 -12t-54 -17t-37.5 -25.5t-19.5 -44.5t-11 -66.5t-1.5 -96.5v-1024q0 -57 16.5 -74.5t73.5 -17.5h35 q100 1 165.5 6t127.5 20.5t101.5 41t78.5 70.5t68 105.5t61 149.5h39l-78 -465q-139 2 -444 2h-686z" />
<glyph unicode="M" horiz-adv-x="1988" d="M78 0v37q53 7 79.5 12t54 17t37.5 25.5t19.5 44.5t11 66.5t1.5 96.5v887q0 61 -1.5 96.5t-11 66.5t-19.5 44.5t-37.5 25.5t-54 17t-79.5 12v37h504l430 -1041l426 1041h473v-37q-53 -7 -79.5 -12t-54 -17t-37.5 -25.5t-19.5 -44.5t-11 -66.5t-1.5 -96.5v-887 q0 -61 1.5 -96.5t11 -66.5t19.5 -44.5t37.5 -25.5t54 -17t79.5 -12v-37h-645v37q40 5 62 8.5t47 11t36 14.5t24.5 21.5t17.5 30t9 43.5t5.5 57.5t0.5 75.5v989l-510 -1233h-43l-538 1264v-1020q0 -61 1.5 -96.5t11 -66.5t19.5 -44.5t37.5 -25.5t54 -17t79.5 -12v-37h-502z " />
<glyph unicode="N" horiz-adv-x="1646" d="M74 0v37q53 7 79 12t53.5 17t37.5 26t19.5 44.5t11 66t1.5 96.5v983l-8 10q-52 68 -89.5 103.5t-80.5 56.5v33h326l889 -1125v826q0 61 -1.5 96.5t-11 66.5t-19.5 44.5t-37.5 25.5t-54 17t-79.5 12v37h500v-37q-53 -7 -79 -12t-54 -17t-37.5 -26t-19.5 -44t-11.5 -66 t-1.5 -97v-1202h-102l-934 1179v-864q0 -61 1.5 -96.5t11 -66t19.5 -44.5t37.5 -26t53.5 -17t79 -12v-37h-499z" />
<glyph unicode="O" d="M102 750q0 146 42 272t115.5 217.5t171 157t209 97.5t228.5 32t228.5 -32t209 -97.5t171 -157t115.5 -217.5t42 -272t-42 -272.5t-115.5 -217.5t-171 -156.5t-209 -98t-228.5 -32.5t-228.5 32.5t-209 98t-171 156.5t-115.5 217.5t-42 272.5zM369 750q0 -315 139 -509 t360 -194t360.5 194t139.5 509t-139.5 508.5t-360.5 193.5t-360 -193.5t-139 -508.5z" />
<glyph unicode="P" horiz-adv-x="1370" d="M78 0v37q53 7 79.5 12t54 17t37.5 25.5t19.5 44.5t11 66.5t1.5 96.5v887q0 61 -1.5 96.5t-11 66.5t-19.5 44.5t-37.5 25.5t-54 17t-79.5 12v37h227q77 0 220 1t182 1q643 0 643 -430q0 -432 -643 -432h-187v-328q0 -46 0.5 -69.5t3.5 -54t8.5 -44t17 -31t26 -24.5 t39.5 -15.5t54 -12t72 -7.5v-39h-663zM520 700h168q99 0 168.5 16t123 55.5t79.5 110t26 175.5q0 104 -26 174.5t-79.5 109t-123 54.5t-168.5 16h-168v-711z" />
<glyph unicode="Q" d="M102 750q0 146 42 272t115.5 217.5t171 157t209 97.5t228.5 32t228.5 -32t209 -97.5t171 -157t115.5 -217.5t42 -272q0 -170 -56.5 -312t-153 -237.5t-219 -153t-259.5 -70.5l-98 -63l-76 -45l2 -4q68 26 178 26q64 0 116.5 -15.5t87.5 -40.5t65.5 -55.5t57.5 -61 t55.5 -55.5t67.5 -40.5t87 -15.5q77 0 117 16l12 -43l-24 -8q-24 -9 -50.5 -16.5t-75.5 -14t-102 -6.5q-81 0 -146 16.5t-106.5 43t-74.5 59t-59 64.5t-51.5 58.5t-60 43t-77.5 16.5q-17 0 -33 -3t-26.5 -6t-29 -13t-25.5 -14.5t-31.5 -20.5t-33.5 -21l-24 41l270 174 q-116 1 -226.5 34t-206.5 99t-168 157t-113.5 216.5t-41.5 270.5zM369 750q0 -315 139 -509t360 -194t360.5 194t139.5 509t-139.5 508.5t-360.5 193.5t-360 -193.5t-139 -508.5z" />
<glyph unicode="R" horiz-adv-x="1519" d="M78 0v37q53 7 79.5 12t54 17t37.5 25.5t19.5 44.5t11 66.5t1.5 96.5v887q0 61 -1.5 96.5t-11 66.5t-19.5 44.5t-37.5 25.5t-54 17t-79.5 12v37h248q67 0 203.5 1t172.5 1q112 0 203.5 -11t175.5 -38.5t141 -71t90.5 -112t33.5 -158.5q0 -303 -383 -373l307 -479 q72 -113 128.5 -155.5t147.5 -51.5v-37h-418q-59 122 -167 293l-107 166q-38 58 -86.5 137.5t-67.5 105.5h-180v-405q0 -46 1 -75t5.5 -56.5t9 -43t18 -30.5t25 -21.5t37 -14t48 -11t63.5 -8.5v-37h-649zM520 778h166q101 0 168.5 13t121.5 47t79.5 97.5t25.5 160.5 q0 77 -17.5 133t-49 91t-82.5 55.5t-108.5 28t-137.5 7.5h-166v-633z" />
<glyph unicode="S" horiz-adv-x="1257" d="M131 84v504h41q15 -132 46.5 -230.5t71 -157t93.5 -94t106.5 -47.5t116.5 -12q91 0 168 30.5t127.5 98t50.5 160.5q0 53 -21 96.5t-63.5 79.5t-89.5 63t-116 58l-166 74q-355 157 -355 430q0 111 66.5 202t180 142t249.5 51q116 0 231.5 -25.5t188.5 -70.5l6 -428h-41 q-19 127 -55.5 216.5t-89 139.5t-112 72t-132.5 22q-130 0 -216.5 -63.5t-86.5 -175.5q0 -56 19.5 -100.5t56.5 -77t70 -52.5t81 -41l174 -78q79 -35 135 -64.5t112.5 -70.5t91 -84.5t56 -102t21.5 -126.5q0 -105 -46 -191.5t-122 -142t-172.5 -85.5t-200.5 -30 q-136 0 -262 31t-213 80z" />
<glyph unicode="T" horiz-adv-x="1576" d="M53 1020l60 471q156 -6 462 -6h429q304 0 460 6l60 -471h-37q-30 87 -57 147.5t-60.5 106.5t-69 73.5t-86 44.5t-107 23t-136.5 6h-62v-1122q0 -42 1 -70.5t5.5 -55.5t11 -43.5t19 -32t28 -23.5t40 -15.5t52.5 -11.5t69 -8v-39h-691v39q41 4 69 8t52.5 11.5t40 15.5 t28 23.5t19 32t11 43.5t5.5 55.5t1 70.5v1122h-64q-80 0 -136.5 -6t-107 -23t-86 -44.5t-68.5 -73.5t-60 -106.5t-56 -147.5h-39z" />
<glyph unicode="U" horiz-adv-x="1611" d="M43 1448v37h643v-37q-53 -7 -79 -12t-54 -17t-37.5 -26t-19.5 -44t-11.5 -66t-1.5 -97v-604q0 -506 385 -506q406 0 410 534v576q0 61 -1.5 97t-11.5 66t-19.5 44t-37.5 26t-54 17t-79 12v37h500v-37q-53 -7 -79.5 -12t-54 -17t-37.5 -25.5t-19.5 -44.5t-11 -66.5 t-1.5 -96.5v-574q0 -323 -139 -481t-424 -158q-563 0 -563 586v627q0 60 -1.5 96t-11 66t-20 44t-38 26.5t-54 17.5t-78.5 12z" />
<glyph unicode="V" horiz-adv-x="1564" d="M18 1448v37h598v-37q-106 -12 -139 -46q-17 -18 -17 -46q0 -27 15 -64l395 -989l271 727q27 74 45 127t28.5 96.5t14.5 72t-2.5 50.5t-15.5 33.5t-31.5 20t-44 12t-58.5 6.5v37h469v-37q-24 -2 -41 -4t-34.5 -8.5t-28.5 -10t-25.5 -18.5t-22.5 -23t-22 -34.5t-21.5 -42.5 t-24 -56.5t-26.5 -67t-32 -83.5l-414 -1120h-109l-516 1267q-19 47 -28 68.5t-23.5 48.5t-26.5 37.5t-32 22.5t-43 16.5t-58 7.5z" />
<glyph unicode="W" horiz-adv-x="2187" d="M20 1448v37h603v-37q-107 -12 -139 -44q-17 -18 -17 -49q0 -26 12 -61l305 -938l244 850l-94 279h266l367 -1129l200 697q67 236 71 297v9q0 54 -35 70q-25 12 -103 19v37h467v-37q-62 -5 -94 -15t-65 -47t-58 -101.5t-60 -184.5l-329 -1125h-111l-360 1057l-310 -1057 h-112l-435 1274q-40 120 -76.5 155t-136.5 44z" />
<glyph unicode="X" horiz-adv-x="1691" d="M41 0v37q68 3 126 27t141.5 99.5t183.5 209.5l266 354l-338 522q-64 98 -141.5 147.5t-149.5 51.5v37h649v-37q-60 -2 -94 -13t-43 -32t-1 -46.5t32 -62.5l237 -366l178 239q40 54 66 94.5t41 69.5t15 48.5t-5 32t-25 20t-40.5 10.5t-55.5 6v37h531v-37q-51 -2 -94 -16 t-98 -48.5t-119 -102t-140 -169.5l-200 -266l397 -610q64 -99 141 -148t150 -51v-37h-650v37q79 3 112.5 22.5t30 50.5t-35.5 80l-295 455l-246 -328q-40 -54 -66 -94t-41 -69.5t-15 -49t5 -31.5t25.5 -19.5t40 -10.5t55.5 -6v-37h-530z" />
<glyph unicode="Y" horiz-adv-x="1486" d="M8 1448v37h602v-37q-71 -8 -108 -25t-46 -49q-2 -7 -2 -16q0 -26 21 -62l330 -594l268 457q65 110 77 171q3 18 3 33q0 36 -21 54q-29 25 -104 31v37h451v-37q-86 -14 -142.5 -61.5t-126.5 -167.5l-366 -625v-295v-35q0 -33 1 -56q2 -34 11 -64.5t22.5 -46.5t41 -29 t61.5 -18.5t88 -10.5v-39h-690v39q54 5 88 10.5t61 19t40.5 28.5t22.5 46t11 65t2 91v285l-383 667q-63 110 -103 147.5t-110 49.5z" />
<glyph unicode="Z" horiz-adv-x="1378" d="M88 0v23l887 1388h-107q-64 0 -107 -1t-94 -4t-84 -9t-72 -16t-65 -24.5t-55 -35.5t-50 -48.5t-43 -63t-40 -79.5t-35 -98h-39l60 459q154 -6 456 -6h578v-21l-899 -1390h203q132 0 204.5 5t151.5 24.5t125 60.5t88.5 111t77.5 178h37l-58 -459q-154 6 -456 6h-664z" />
<glyph unicode="[" horiz-adv-x="598" d="M176 -442v2023h397v-76h-186v-1872h186v-75h-397z" />
<glyph unicode="\" horiz-adv-x="815" d="M0 1589h113l702 -1655h-106z" />
<glyph unicode="]" horiz-adv-x="598" d="M27 -367h186v1872h-186v76h395v-2023h-395v75z" />
<glyph unicode="^" horiz-adv-x="958" d="M-4 680l410 805h145l412 -805h-162l-324 625l-319 -625h-162z" />
<glyph unicode="_" horiz-adv-x="991" d="M47 0h897v-147h-897v147z" />
<glyph unicode="`" horiz-adv-x="475" d="M27 1581h264l149 -346h-32z" />
<glyph unicode="a" horiz-adv-x="1128" d="M80 221q0 93 68.5 165t211.5 144q86 44 367 168l2 50v17q1 143 -49 206q-52 67 -158 67q-124 0 -176 -71q-45 -61 -44 -170q0 -17 1 -35h-194q4 92 66.5 174t168.5 132t227 50q77 0 139.5 -16.5t115.5 -53.5q54 -38 82 -108q27 -66 26 -157v-13l-10 -526v-10 q0 -74 14 -100q16 -28 57 -28q42 0 90 41l23 -22q-29 -36 -45.5 -54t-45 -43.5t-58.5 -36.5t-64 -11q-74 0 -123.5 46.5t-48.5 153.5q-110 -207 -338 -207q-132 0 -218.5 71.5t-86.5 176.5zM297 291q0 -86 54 -133t145 -47q148 0 223 114l6 381q-106 -32 -184.5 -65.5 t-124.5 -64t-73.5 -64t-36.5 -61.5t-9 -60z" />
<glyph unicode="b" horiz-adv-x="1224" d="M-4 1522v37l385 127q-4 -218 -4 -449v-303q143 186 321 186q131 0 232.5 -74t154 -195.5t52.5 -266.5q0 -128 -43.5 -242.5t-115 -194.5t-167 -127t-197.5 -47q-181 0 -303 125l-127 -116h-32q8 234 8 352v987v66t-3.5 48.5t-5.5 36.5t-13.5 23t-18.5 15.5t-30.5 6.5 t-39 4.5t-53.5 0.5zM377 178q35 -58 101.5 -91.5t139.5 -33.5q99 0 165.5 60t95 158t28.5 231q0 211 -90.5 340t-238.5 129q-135 0 -201 -92v-701z" />
<glyph unicode="c" horiz-adv-x="1040" d="M78 526q0 136 47 249.5t126 188t181.5 115.5t214.5 41q126 0 212.5 -62.5t86.5 -144.5q0 -47 -32 -78.5t-85 -31.5q-67 0 -96 57l-65 135q-11 24 -29 32.5t-49 8.5q-46 0 -89.5 -13.5t-85 -44.5t-72.5 -77t-50 -116t-19 -156q0 -97 25.5 -182t73.5 -150.5t123.5 -103 t169.5 -37.5q75 0 153 30t139 84l23 -20q-25 -41 -50 -75t-65 -73.5t-83.5 -66t-103.5 -44.5t-126 -18q-116 0 -208 44t-149.5 120.5t-87.5 175.5t-30 213z" />
<glyph unicode="d" horiz-adv-x="1245" d="M78 512q0 129 43.5 243.5t115.5 193.5t166 125t193 46q152 0 242 -88v295v81t-8 52.5t-15.5 35t-33.5 16t-50 8.5h-78v36l408 130q-6 -327 -6 -449v-901v-64t3 -47t5.5 -36.5t12 -23.5t18 -17t28.5 -8.5t38.5 -6.5t51.5 -2v-35l-340 -112l-28 180q-53 -86 -137 -138.5 t-191 -52.5q-132 0 -232.5 72.5t-153 194.5t-52.5 272zM305 598q0 -212 93 -345.5t241 -133.5q60 0 113 25t86 71v698q-31 66 -96.5 101t-145.5 35q-143 0 -217 -124.5t-74 -326.5z" />
<glyph unicode="e" horiz-adv-x="1097" d="M78 539q0 158 68 292t184.5 211.5t253.5 77.5q187 0 309 -114t135 -330h-756v-10q0 -231 106 -370.5t292 -139.5q192 0 329 133l25 -21q-33 -57 -74 -106t-96.5 -93.5t-129 -70t-155.5 -25.5q-122 0 -216.5 43t-154 119.5t-90 179t-30.5 224.5zM276 756h504 q-6 136 -66.5 212t-168.5 76q-105 0 -178 -72t-91 -216z" />
<glyph unicode="f" horiz-adv-x="835" d="M68 1020v82h176v22q0 114 39 212t104 164t151.5 103t180.5 37q92 0 152.5 -46.5t60.5 -106.5q0 -44 -31.5 -72.5t-77.5 -28.5q-54 0 -80 37l-71 105q-20 31 -51 31q-30 0 -65.5 -13.5t-72 -48t-57.5 -83.5q-17 -40 -17 -101q0 -15 1 -31q5 -81 45 -180h346v-82h-340v-725 q0 -49 0.5 -77.5t5.5 -58t10 -44t20 -29.5t29 -21t44 -12.5t58 -8.5t77 -5v-39h-625v37q26 3 44 5.5t35 8.5t28 9.5t20.5 14.5t15 18t10 25.5t6.5 31t3.5 40t1.5 47v58.5v725h-176z" />
<glyph unicode="g" horiz-adv-x="1224" d="M68 -197q0 152 280 220q-92 15 -144 61t-52 113q0 50 31 98t62 74t107 82q8 7 13 10q-107 40 -167.5 122.5t-60.5 190.5q0 152 117 249t303 97q140 0 248 -59h352v-88h-246q68 -87 68 -199q0 -152 -117 -249t-303 -97q-84 0 -141 16q-50 -42 -79.5 -84.5t-29.5 -72.5 q0 -70 137 -76l216 -10q131 -5 232 -33t167.5 -90t66.5 -152q0 -44 -19.5 -93t-65.5 -101t-112 -93t-169 -67.5t-227 -26.5q-209 0 -338 74.5t-129 183.5zM262 -168q0 -96 104.5 -148.5t258.5 -52.5q153 0 253.5 61t100.5 163q0 80 -70.5 113t-206.5 38l-288 10h-2 q-72 -27 -111 -78t-39 -106zM344 817q0 -129 61 -225t164 -96q93 0 148 61t55 174q0 129 -61 225.5t-164 96.5q-93 0 -148 -61.5t-55 -174.5z" />
<glyph unicode="h" horiz-adv-x="1249" d="M35 0v37q26 3 44 5.5t35 8.5t28 9.5t20.5 14.5t15 18t10 25.5t6.5 31t3.5 40t1.5 47v58.5v1026v66t-3.5 48.5t-5.5 36.5t-13.5 23t-18.5 15.5t-30.5 6.5t-39 4.5t-53.5 0.5v37l385 127q-4 -218 -4 -449v-305q34 41 62.5 69.5t69.5 58t89.5 45t103.5 15.5 q141 0 228.5 -97.5t87.5 -291.5v-436v-58.5t1.5 -47t3.5 -40t6.5 -31t10 -25.5t15 -18t20.5 -14.5t28 -9.5t35 -8.5t44 -5.5v-37h-541v37q25 3 43 5.5t34.5 8.5t27 9.5t20 14.5t15 18t10 25.5t6 31t3 40t1.5 47v58.5v393q0 283 -209 283q-65 0 -124.5 -24.5t-90.5 -69.5 v-582v-58t1.5 -47.5t3 -40.5t6 -30.5t9.5 -25.5t14.5 -18t20.5 -14.5t27 -9.5t34 -8.5t43 -5.5v-37h-540z" />
<glyph unicode="i" horiz-adv-x="694" d="M82 0v37q26 3 44 5.5t35 8.5t28 9.5t20.5 14.5t15 18t10 25.5t6.5 31t3.5 40t1.5 47v58.5v455v56t-2 44t-2.5 35t-7 25t-9 19.5t-16 12t-20 8.5t-28.5 3.5t-34.5 2.5h-44.5v37l385 127q-4 -218 -4 -448v-377v-58.5t1.5 -47t3.5 -40t6.5 -31t10 -25.5t15 -18t20.5 -14.5 t28 -9.5t35 -8.5t44 -5.5v-37h-545zM193 1513q0 60 44.5 102t106.5 42q63 0 106.5 -42t43.5 -102q0 -63 -43 -104t-107 -41q-62 0 -106.5 41.5t-44.5 103.5z" />
<glyph unicode="j" horiz-adv-x="628" d="M20 -459q65 70 107 142.5t62.5 153.5t27 154t6.5 175v584v68t-4 50t-5.5 37.5t-13.5 23.5t-18.5 15.5t-30 6.5t-39 4.5t-53.5 0.5v37l385 127q-4 -218 -4 -448v-473q0 -116 -16.5 -203.5t-59.5 -174t-123.5 -160.5t-203.5 -140zM164 1513q0 60 44.5 102t106.5 42 q63 0 106.5 -42t43.5 -102q0 -63 -43 -104t-107 -41q-62 0 -106.5 41.5t-44.5 103.5z" />
<glyph unicode="k" horiz-adv-x="1280" d="M35 0v37q26 3 44 5.5t35 8.5t28 9.5t20.5 14.5t15 18t10 25.5t6.5 31t3.5 40t1.5 47v58.5v1026v66t-3.5 48.5t-5.5 36.5t-13.5 23t-18.5 15.5t-30.5 6.5t-39 4.5t-53.5 0.5v37l385 127q-4 -218 -4 -449v-942v-58.5t1.5 -47t3.5 -40t6.5 -31t10 -25.5t15 -18t20.5 -14.5 t28 -9.5t35 -8.5t44 -5.5v-37h-545zM422 596l348 291q102 84 102 128q0 46 -110 50v37h471v-37q-93 0 -157.5 -36t-192.5 -142l-258 -209l448 -522q52 -60 99 -88t112 -31v-37h-559v37q44 2 69.5 9.5t35.5 18t5 28.5t-18.5 38t-38.5 49z" />
<glyph unicode="l" horiz-adv-x="688" d="M84 0v37q26 3 44 5.5t35 8.5t28 9.5t20.5 14.5t15 18t10 25.5t6.5 31t3.5 40t1.5 47v58.5v1026v66t-3.5 48.5t-5.5 36.5t-13.5 23t-18.5 15.5t-30.5 6.5t-39 4.5t-53.5 0.5v37l385 127q-4 -218 -4 -449v-942v-58.5t1.5 -47t3.5 -40t6.5 -31t10 -25.5t15 -18t20.5 -14.5 t28 -9.5t35 -8.5t44 -5.5v-37h-545z" />
<glyph unicode="m" horiz-adv-x="1886" d="M39 0v37q26 3 44 5.5t35 8.5t28 9.5t20.5 14.5t15 18t10 25.5t6.5 31t3.5 40t1.5 47v58.5v461v54t-2 42.5t-2.5 34.5t-7.5 24.5t-9.5 18.5t-16 12t-20 8t-28 3.5t-34.5 2.5h-44v37l377 127l4 -188q32 40 61 69t69.5 58.5t89.5 45t105 15.5q103 0 179.5 -54.5 t109.5 -162.5q70 96 159 156.5t193 60.5q140 0 227 -98t87 -291v-436v-58.5t1.5 -47t3.5 -40t6.5 -31t10 -25.5t15 -18t20.5 -14.5t28 -9.5t35 -8.5t44 -5.5v-37h-541v37q25 3 43 5.5t34.5 8.5t27 9.5t20 14.5t15 18t10 25.5t6 31t3 40t1.5 47v58.5v393q0 283 -207 283 q-63 0 -126 -30t-103 -83q12 -55 12 -127v-436v-58.5t1.5 -47t3.5 -40t6.5 -31t10 -25.5t15 -18t20.5 -14.5t28 -9.5t35 -8.5t44 -5.5v-37h-539v37q25 3 42.5 5.5t33.5 8.5t27 9.5t20 14.5t14.5 18t10 25.5t6 31t3 40t1.5 47v58.5v393q0 283 -207 283q-66 0 -125 -24.5 t-90 -69.5v-582v-58.5t1.5 -47t3 -40t6 -31t10 -25.5t15 -18t20 -14.5t27 -9.5t34.5 -8.5t43 -5.5v-37h-541z" />
<glyph unicode="n" horiz-adv-x="1236" d="M35 0v37q26 3 44 5.5t35 8.5t28 9.5t20.5 14.5t15 18t10 25.5t6.5 31t3.5 40t1.5 47v58.5v461v66t-3.5 48t-5 36.5t-13.5 23t-18.5 15.5t-30 6.5t-39 4.5h-54.5v37l379 127l2 -188q34 41 62.5 69.5t69.5 58t89.5 45t103.5 15.5q141 0 226.5 -97.5t85.5 -291.5v-436v-58.5 t1.5 -47t3.5 -40t6.5 -31t10 -25.5t15 -18t20.5 -14.5t28 -9.5t35 -8.5t44 -5.5v-37h-541v37q25 3 43 5.5t34.5 8.5t27 9.5t20 14.5t15 18t10 25.5t6 31t3 40t1.5 47v58.5v393q0 143 -50 213t-155 70q-65 0 -124 -24.5t-91 -69.5v-582v-58t1.5 -47.5t3 -40.5t6 -30.5 t9.5 -25.5t14.5 -18t20.5 -14.5t27 -9.5t34 -8.5t43 -5.5v-37h-540z" />
<glyph unicode="o" horiz-adv-x="1277" d="M80 549q0 117 42.5 222.5t115.5 182t174.5 121.5t214.5 45q148 0 275.5 -71.5t206.5 -204t79 -295.5q0 -157 -72.5 -289.5t-198.5 -209.5t-276 -77q-147 0 -275 72.5t-207 206t-79 297.5zM313 621q0 -65 11.5 -137.5t39 -150t66.5 -139t100.5 -101.5t135.5 -40 q141 0 213.5 111.5t72.5 310.5q0 53 -8 112t-24.5 123.5t-45 122.5t-65 105t-89 74.5t-114.5 27.5q-145 0 -219 -110.5t-74 -308.5z" />
<glyph unicode="p" horiz-adv-x="1243" d="M16 -406q32 4 53.5 7.5t40 11.5t29.5 14.5t19.5 24.5t12.5 30.5t6 44t2.5 55t0.5 71.5v901v54.5t-2 43t-2.5 34.5t-7.5 25l-9.5 19t-16 12t-20 8t-28 3.5t-34.5 2.5h-44v37l375 127v-184q148 184 328 184q99 0 182 -43t138 -116.5t85.5 -171t30.5 -205.5 q0 -128 -43.5 -242.5t-115 -194.5t-165.5 -127t-194 -47q-150 0 -240 88v-208v-75.5t3.5 -57t7.5 -44.5t15.5 -29.5t24 -22.5t37 -13t50 -10.5t67.5 -6.5v-36h-586v36zM397 180q31 -66 96 -100.5t146 -34.5q96 0 162.5 62t96.5 162.5t30 232.5q0 211 -91 340t-239 129 q-138 0 -201 -86v-705z" />
<glyph unicode="q" horiz-adv-x="1230" d="M78 512q0 129 43.5 243.5t115.5 193.5t166 125t193 46q143 0 242 -69l221 61q-4 -111 -4 -477v-782q0 -48 0.5 -71.5t2.5 -55t6 -44t12.5 -30.5t19.5 -24.5t29.5 -14.5t40 -11.5t53.5 -7.5v-36h-586v36q42 4 67.5 6.5t50 10.5t37 13t24 22.5t15.5 29.5t7.5 44.5t3.5 57 v75.5v305q-55 -84 -137 -134.5t-185 -50.5q-132 0 -232.5 72.5t-153 194.5t-52.5 272zM305 598q0 -212 93 -345.5t241 -133.5q60 0 113 25t86 71v717q-31 53 -97 85t-145 32q-143 0 -217 -124.5t-74 -326.5z" />
<glyph unicode="r" horiz-adv-x="890" d="M37 0v37q26 3 44 5.5t35 8.5t28 9.5t20.5 14.5t15 18t10 25.5t6.5 31t3.5 40t1.5 47v58.5v459v54.5t-2 43t-2.5 34.5t-7.5 25l-9.5 19t-16 12t-20 8t-28 3.5t-34.5 2.5h-44v37l377 127l4 -213q33 41 50 61.5t51 55t60.5 52t63.5 32t74 14.5q69 0 111 -37t42 -98 q0 -55 -35.5 -93t-91.5 -38q-22 0 -35.5 6t-33.5 25l-66 63q-22 19 -35 19q-27 0 -70.5 -34t-84.5 -87v-553q0 -49 0.5 -77t5.5 -58t9.5 -44t19.5 -30t29 -21.5t44 -12t58 -8.5t78 -5v-39h-625z" />
<glyph unicode="s" horiz-adv-x="968" d="M125 49v385h39q26 -190 101.5 -279t199.5 -89q57 0 103.5 16.5t79 57.5t32.5 102q0 62 -44.5 106.5t-137.5 91.5l-115 62q-65 34 -105 61t-78 65.5t-55.5 86.5t-17.5 110q0 60 24.5 110t65 83.5t93 57t106.5 34t108 10.5q63 0 141 -13.5t126 -35.5l2 -311h-43 q-55 278 -269 278q-80 0 -136 -39t-56 -104q0 -59 42.5 -100t125.5 -84l114 -62q75 -39 120 -68.5t86 -70.5t59 -92t18 -117q0 -100 -58.5 -176.5t-148.5 -114t-194 -37.5q-77 0 -170 21.5t-158 54.5z" />
<glyph unicode="t" horiz-adv-x="706" d="M-8 1020v82h180v184l215 150v-334h266v-82h-266v-690q0 -121 29.5 -169t111.5 -48q92 0 160 63l19 -18q-52 -84 -117.5 -134.5t-163.5 -50.5q-126 0 -191 75t-65 243v729h-178z" />
<glyph unicode="u" horiz-adv-x="1202" d="M8 1036v37l377 37q-4 -212 -4 -408v-278q0 -154 47 -228.5t147 -74.5q138 0 218 127v581v46.5t-1 38t-3 32.5t-6 25t-9.5 21.5t-14.5 15t-20 12t-27 7t-34.5 6.5t-42.5 3v37l381 37q-6 -318 -6 -410v-364v-64t3 -47t5.5 -36.5t12 -23.5t18.5 -17t29 -8.5t38.5 -6.5 t52.5 -2v-35l-344 -112l-26 198q-48 -86 -131.5 -147.5t-184.5 -61.5q-143 0 -232 100.5t-89 309.5q0 59 2 222t2 224v46.5t-1 38t-3 32.5t-6 25t-9.5 21.5t-14.5 15t-20 12t-27 7t-34.5 6.5t-42.5 3z" />
<glyph unicode="v" horiz-adv-x="1167" d="M8 1065v37h498v-37q-47 -2 -75.5 -11t-42.5 -21t-15 -33.5t5 -42t19 -54.5l242 -614l213 506q33 78 46 125q9 33 9 59q1 11 -1 21q-6 32 -32.5 46t-78.5 19v37h364v-37q-67 -6 -100.5 -46.5t-79.5 -154.5l-381 -889h-57l-394 953q-34 78 -59 105.5t-80 31.5z" />
<glyph unicode="w" horiz-adv-x="1646" d="M8 1065v37h496v-37q-46 -2 -74 -11t-41.5 -20.5t-14 -34.5t4 -42.5t16.5 -55.5l180 -565l259 766h88l252 -768l161 467q23 65 34 105t13.5 72t-9.5 48t-34.5 25.5t-62.5 13.5v37h364v-37q-70 -6 -104.5 -45.5t-75.5 -151.5l-319 -893h-62l-266 807l-272 -807h-60 l-334 951q-29 76 -55.5 104t-83.5 35z" />
<glyph unicode="x" horiz-adv-x="1271" d="M37 0v37q90 12 158.5 66t173.5 196l168 227l-281 416q-44 66 -78.5 90t-97.5 33v37h500v-37q-40 -4 -61.5 -9.5t-33.5 -14t-8 -26t15 -38.5t36 -59l142 -213l90 120q36 48 56.5 77t35.5 57.5t14.5 44t-12 29t-36.5 20.5t-66 12v37h434v-37q-91 -12 -159 -65.5 t-175 -196.5l-129 -174l315 -469q46 -66 81 -90t98 -33v-37h-500v37q95 9 103 35q1 3 1 8q0 30 -53 104l-178 265l-127 -173q-27 -37 -43.5 -60t-32.5 -48t-21.5 -39.5t-7.5 -30t5 -24t20.5 -16.5t35 -13t52.5 -8v-37h-434z" />
<glyph unicode="y" horiz-adv-x="1210" d="M8 1065v37h504v-37q-58 -3 -90 -14t-40.5 -34t-4 -47.5t21.5 -66.5l267 -641l221 535q48 107 48 166q0 14 -3 25q-14 59 -121 77v37h391v-37q-75 -13 -103.5 -47.5t-76.5 -151.5l-428 -1013q-30 -71 -48 -109.5t-45 -82.5t-52 -65t-60.5 -35t-79.5 -14q-80 0 -128 36.5 t-48 97.5q0 50 30 83t66 33q31 0 62 -33l102 -100q46 74 113 234l39 94l-398 936q-33 77 -58 105t-81 32z" />
<glyph unicode="z" horiz-adv-x="1181" d="M96 0v18l674 1000h-170q-65 0 -106 -2t-82 -8t-65 -18.5t-46.5 -31.5t-36 -50t-23.5 -71t-18 -96h-43v361h871v-21l-664 -997h213q56 0 93 1.5t74.5 6.5t60.5 13t46 22.5t36.5 34t26.5 49t21 65t15 84.5h41v-360h-918z" />
<glyph unicode="{" horiz-adv-x="702" d="M82 539v67q42 0 72.5 15t48 37t27.5 56t13 64t3 68v483q0 95 24.5 147t92.5 78.5t194 26.5h90v-76h-26q-103 0 -134.5 -36.5t-31.5 -135.5v-467q0 -72 -17 -124.5t-49.5 -85t-71.5 -51t-92 -30.5v-6q53 -12 91.5 -30t71.5 -50.5t50 -85t17 -124.5v-474q0 -99 31.5 -135.5 t134.5 -36.5h26v-75h-90q-126 0 -194 26.5t-92.5 78.5t-24.5 147v489q0 38 -3 68t-13 64t-27.5 56t-48 37t-72.5 15z" />
<glyph unicode="|" horiz-adv-x="495" d="M174 -184v1669h148v-1669h-148z" />
<glyph unicode="}" horiz-adv-x="702" d="M55 -367h27q103 0 134.5 36.5t31.5 135.5v474q0 72 16.5 124.5t49.5 85t71.5 50.5t91.5 30v6q-53 12 -91.5 30.5t-71.5 51t-49.5 85t-16.5 124.5v467q0 99 -31.5 135.5t-134.5 36.5h-27v76h90q126 0 194 -26.5t93 -78.5t25 -147v-495q0 -37 3 -66t13 -61t27.5 -53 t48 -34.5t72.5 -13.5v-67q-42 0 -72.5 -13.5t-48 -34.5t-27.5 -53t-13 -61t-3 -66v-501q0 -95 -25 -147t-93 -78.5t-194 -26.5h-90v75z" />
<glyph unicode="~" horiz-adv-x="1413" d="M184 422q7 134 85.5 208.5t203.5 74.5q66 0 138.5 -23.5t123.5 -52.5t108.5 -52.5t98.5 -23.5q60 0 99.5 39t43.5 113h144q-9 -135 -86.5 -209t-200.5 -74q-57 0 -125 23.5t-120.5 52t-114.5 52t-109 23.5q-60 0 -99.5 -38t-43.5 -113h-146z" />
<glyph unicode="&#xa1;" horiz-adv-x="763" d="M229 969q0 61 45 106t107 45q63 0 107 -44.5t44 -106.5t-44 -107t-107 -45q-61 0 -106.5 45.5t-45.5 106.5zM260 66l100 593h41l103 -596v-458q0 -38 -61 -53.5t-122 0t-61 53.5v461z" />
<glyph unicode="&#xa2;" horiz-adv-x="1187" d="M88 543q0 239 130.5 394.5t346.5 174.5v180h97v-180q109 -8 199 -50t154.5 -124t84.5 -195h-209q-10 133 -70.5 207.5t-158.5 85.5v-987q100 12 161 86.5t70 208.5h209q-28 -170 -149 -264t-291 -105v-184h-97v184q-215 19 -346 174.5t-131 393.5zM317 543 q0 -447 248 -492v983q-248 -45 -248 -491z" />
<glyph unicode="&#xa3;" horiz-adv-x="1355" d="M86 125q45 18 82.5 38.5t78.5 55t69 75.5t46.5 101t18.5 131q0 96 -47 211h-246v92h203q-29 59 -44.5 94.5t-29.5 89.5t-14 103q0 100 45 179t121 127t168 73t192 25q105 0 197 -25.5t166 -75t121 -130t57 -183.5h-230q-2 157 -77 248.5t-234 91.5q-144 0 -222.5 -77.5 t-78.5 -223.5q0 -58 14.5 -118t30.5 -99t45 -99h416v-92h-373q39 -97 39 -180q0 -52 -20 -101.5t-48.5 -85.5t-72 -72t-79 -58.5t-79.5 -46.5l2 -5q127 56 211 56q81 0 200 -46t199 -46q121 0 265 63l65 -176q-50 -28 -142 -50t-173 -22q-88 0 -227 41t-218 41 q-126 0 -333 -84z" />
<glyph unicode="&#xa4;" horiz-adv-x="1320" d="M117 283l143 145q-96 129 -96 293q0 162 94 293l-141 145l94 90l139 -139q132 107 305 107q178 0 314 -111l143 143l94 -90l-147 -149q94 -131 94 -289t-96 -291l149 -147l-94 -93l-147 144q-132 -107 -310 -107q-169 0 -303 105l-141 -142zM305 721q0 -158 98 -263.5 t250 -105.5q160 0 261.5 105.5t101.5 263.5q0 160 -101.5 266.5t-261.5 106.5q-152 0 -250 -106.5t-98 -266.5z" />
<glyph unicode="&#xa5;" horiz-adv-x="1427" d="M31 1452v33h569v-33q-55 -6 -88 -15t-53 -24.5t-19.5 -40.5t19.5 -61l315 -609l205 369q64 117 92 190.5t22 114t-33 56t-83 20.5v33h420v-33q-85 -13 -141 -76.5t-171 -275.5l-262 -473h383v-90h-405v-154h405v-92h-405q0 -56 2.5 -90t11.5 -63t22.5 -44.5t41 -28.5 t59.5 -19t86 -13v-33h-657v33q53 7 85 13t59.5 19t40.5 28.5t22 44.5t11.5 63t2.5 90h-371v92h371v154h-371v90h346l-346 639q-24 47 -33.5 64.5t-26 44t-25.5 34t-25.5 19.5t-33 16t-42.5 8z" />
<glyph unicode="&#xa6;" horiz-adv-x="495" d="M174 -184v624h148v-624h-148zM174 860v625h148v-625h-148z" />
<glyph unicode="&#xa7;" horiz-adv-x="1251" d="M70 614q0 107 85.5 186.5t215.5 119.5q-191 133 -191 301q0 94 63 164t157.5 102.5t203.5 32.5q188 0 312 -90t151 -263h-203q-3 69 -31.5 130.5t-89 105t-141.5 43.5q-97 0 -165 -49t-68 -135q0 -65 49.5 -118.5t146.5 -105.5l295 -155q74 -39 122.5 -70t95 -73t69 -91 t22.5 -108q0 -231 -301 -336q189 -136 189 -301q0 -110 -63 -193t-161.5 -123.5t-214.5 -40.5q-202 0 -335.5 103t-157.5 289h207q9 -142 82.5 -229t199.5 -87q112 0 181 60t69 153q0 87 -50 145t-173 123l-274 146q-69 36 -118.5 70t-92 78t-64.5 98t-22 118zM260 659 q0 -74 49 -123.5t154 -105.5l278 -149q28 -13 70 -39q72 36 119 94.5t47 126.5q0 71 -59 130.5t-175 123.5l-270 141l-43 23q-72 -30 -121 -89t-49 -133z" />
<glyph unicode="&#xa8;" horiz-adv-x="788" d="M39 1452q0 56 37 92.5t94 36.5q53 0 90 -37t37 -92q0 -58 -37 -95.5t-90 -37.5q-57 0 -94 37.5t-37 95.5zM487 1452q0 55 38.5 92t95.5 37q53 0 90 -37t37 -92q0 -58 -37 -95.5t-90 -37.5q-57 0 -95.5 37.5t-38.5 95.5z" />
<glyph unicode="&#xa9;" horiz-adv-x="1714" d="M90 739q0 167 60.5 311.5t164 244.5t245 157t300.5 57q210 0 384.5 -96.5t278 -274t103.5 -399.5t-103.5 -398.5t-278 -272t-384.5 -95.5q-159 0 -300.5 56.5t-245 155.5t-164 243t-60.5 311zM223 739q0 -189 84.5 -338t229.5 -230t323 -81q134 0 251 47.5t201.5 132 t133.5 206t49 263.5q0 143 -49 265.5t-133.5 207t-201.5 132t-251 47.5q-133 0 -250.5 -47.5t-202.5 -132t-134.5 -207t-49.5 -265.5zM473 750q0 196 105 307.5t284 111.5q138 0 225.5 -68.5t118.5 -182.5l-125 -41q-21 84 -83.5 129t-145.5 45q-103 0 -173.5 -78 t-70.5 -223t71 -228.5t173 -83.5q80 0 145 40.5t88 121.5l127 -37q-37 -106 -127 -173.5t-233 -67.5q-179 0 -279 114t-100 314z" />
<glyph unicode="&#xaa;" horiz-adv-x="632" d="M35 1036q0 62 43 102.5t123 73.5q91 36 180 62v45q5 162 -102 162q-109 0 -101 -156h-133q13 94 91 148.5t173 54.5q61 0 110.5 -19.5t83.5 -69.5t32 -126l-7 -260q-1 -51 8 -70.5t29 -19.5q19 0 47 28l17 -14q-57 -90 -135 -90q-46 0 -78 26t-35 88q-62 -118 -178 -118 q-70 0 -119 45t-49 108zM182 1083q0 -43 29.5 -70.5t71.5 -27.5q61 0 94 41l2 197q-93 -16 -148 -52q-49 -30 -49 -88z" />
<glyph unicode="&#xab;" horiz-adv-x="1163" d="M68 559l419 479h101l-269 -479l269 -481h-101zM489 559l420 479h101l-269 -479l269 -481h-101z" />
<glyph unicode="&#xac;" horiz-adv-x="1388" d="M141 756v139h1086v-692h-150v553h-936z" />
<glyph unicode="&#xad;" horiz-adv-x="790" d="M111 475v182h571v-182h-571z" />
<glyph unicode="&#xae;" horiz-adv-x="1714" d="M90 739q0 167 60.5 311.5t164 244.5t245 157t300.5 57q210 0 384.5 -96.5t278 -274t103.5 -399.5t-103.5 -398.5t-278 -272t-384.5 -95.5q-159 0 -300.5 56.5t-245 155.5t-164 243t-60.5 311zM223 739q0 -189 84.5 -338t229.5 -230t323 -81q134 0 251 47.5t201.5 132 t133.5 206t49 263.5q0 143 -49 265.5t-133.5 207t-201.5 132t-251 47.5q-133 0 -250.5 -47.5t-202.5 -132t-134.5 -207t-49.5 -265.5zM569 358v813h246q77 0 131.5 -5.5t104.5 -21t80 -42t47.5 -70.5t17.5 -106q0 -72 -37.5 -130t-111.5 -89l184 -349h-150l-168 320 q-14 -2 -43 -2h-172v-318h-129zM698 795h168q101 0 147 31.5t46 97.5q0 70 -52.5 97.5t-150.5 27.5h-158v-254z" />
<glyph unicode="&#xaf;" horiz-adv-x="665" d="M29 1362v139h606v-139h-606z" />
<glyph unicode="&#xb0;" horiz-adv-x="700" d="M45 1206q0 128 89 216.5t214 88.5q128 0 217.5 -88.5t89.5 -216.5q0 -127 -89.5 -216t-217.5 -89q-125 0 -214 89t-89 216zM184 1206q0 -78 45.5 -131t118.5 -53q76 0 123 53t47 131q0 79 -47 132t-123 53q-73 0 -118.5 -53.5t-45.5 -131.5z" />
<glyph unicode="&#xb1;" horiz-adv-x="1388" d="M135 0v139h1120v-139h-1120zM135 608v140h488v356h145v-356h487v-140h-487v-368h-145v368h-488z" />
<glyph unicode="&#xb2;" horiz-adv-x="655" d="M-23 897v14q241 216 333.5 347t92.5 235q0 74 -40.5 115t-110.5 41q-69 0 -117 -34.5t-65 -98.5h-35q20 114 94.5 175.5t192.5 61.5q105 0 176 -55.5t71 -155.5q0 -84 -41.5 -146t-171.5 -190q-95 -92 -172 -159h406v-150h-613z" />
<glyph unicode="&#xb3;" horiz-adv-x="694" d="M59 1516q20 113 96.5 175t192.5 62q90 0 155.5 -42.5t65.5 -115.5q0 -34 -17 -65.5t-46 -55.5t-55 -40t-54 -29v-4q99 -30 159 -96.5t60 -155.5q0 -81 -52 -143.5t-130.5 -92.5t-165.5 -30q-106 0 -202 41v211h20q24 -99 78 -152t121 -53q74 0 120 45.5t46 116.5 q0 23 -5.5 46.5t-20.5 52t-39 52t-64.5 43t-92.5 27.5v24l27 13q77 33 114.5 87.5t37.5 102.5q0 52 -36 80.5t-100 28.5q-65 0 -113 -35t-63 -98h-37z" />
<glyph unicode="&#xb4;" horiz-adv-x="497" d="M39 1235l149 346h265l-381 -346h-33z" />
<glyph unicode="&#xb5;" horiz-adv-x="1167" d="M133 -387q21 91 21 321v1168h145v-602q0 -196 73 -299t208 -103q136 0 212 107.5t76 302.5v594h144v-1102h-144v174q-42 -99 -116 -150t-172 -51q-202 0 -281 187v-207q0 -212 -23 -340h-143z" />
<glyph unicode="&#xb6;" horiz-adv-x="1138" d="M41 1094q0 185 127.5 288t374.5 103h379v-1671h-136v1544h-241v-1544h-137v913q-71 8 -134.5 33.5t-116.5 68.5t-84.5 111.5t-31.5 153.5z" />
<glyph unicode="&#xb7;" horiz-adv-x="731" d="M213 569q0 61 45.5 106.5t106.5 45.5q63 0 107 -45t44 -107t-44 -106.5t-107 -44.5q-62 0 -107 45t-45 106z" />
<glyph unicode="&#xb8;" horiz-adv-x="507" d="M45 -430l21 45q63 -29 131 -29q58 0 93.5 26t35.5 71q0 44 -37 66.5t-84.5 20t-83.5 -23.5l-19 10l150 250h76l-105 -176q37 18 86 18q70 0 114 -42t44 -103q0 -49 -21 -87.5t-55 -60.5t-71.5 -33t-75.5 -11q-101 0 -199 59z" />
<glyph unicode="&#xb9;" horiz-adv-x="595" d="M76 1608v22q202 22 297 117h24v-684q0 -90 16 -112.5t93 -32.5v-21h-406v23q34 3 54 5.5t36.5 10t24 15t12 26t5.5 36t1 52.5v543h-157z" />
<glyph unicode="&#xba;" horiz-adv-x="714" d="M43 1210q0 127 88.5 222.5t222.5 95.5q133 0 225.5 -92t92.5 -230q0 -132 -89.5 -227.5t-224.5 -95.5q-136 0 -225.5 92.5t-89.5 234.5zM215 1247q0 -48 7.5 -99t23.5 -104t48.5 -86.5t76.5 -33.5q46 0 76.5 36.5t41.5 88t11 118.5q0 46 -7.5 96t-23.5 103t-48.5 87 t-76.5 34q-68 0 -98.5 -67t-30.5 -173z" />
<glyph unicode="&#xbb;" horiz-adv-x="1163" d="M152 78l270 481l-270 479h102l420 -479l-420 -481h-102zM573 78l271 481l-271 479h103l420 -479l-420 -481h-103z" />
<glyph unicode="&#xbc;" horiz-adv-x="1857" d="M76 1360v22q202 22 297 117h24v-684q0 -90 16 -112.5t93 -32.5v-21h-406v23q34 3 54 5.5t36.5 10t24 15t12 26t5.5 36t1 52.5v543h-157zM279 0l1040 1485h135l-1038 -1485h-137zM1159 203v98l381 535h143v-498h138v-135h-138v-203h-163v203h-361zM1249 338h271v377z" />
<glyph unicode="&#xbd;" horiz-adv-x="1792" d="M76 1360v22q202 22 297 117h24v-684q0 -90 16 -112.5t93 -32.5v-21h-406v23q34 3 54 5.5t36.5 10t24 15t12 26t5.5 36t1 52.5v543h-157zM279 0l1040 1485h135l-1038 -1485h-137zM1114 0v14q241 216 333.5 347t92.5 235q0 74 -40.5 115t-110.5 41q-69 0 -117.5 -35 t-65.5 -99h-35q20 114 94.5 176t192.5 62q105 0 176.5 -55.5t71.5 -155.5q0 -84 -41.5 -146t-171.5 -190q-95 -92 -172 -159h405v-150h-612z" />
<glyph unicode="&#xbe;" horiz-adv-x="1955" d="M59 1268q20 113 96.5 175t192.5 62q90 0 155.5 -42t65.5 -115q0 -34 -17.5 -65.5t-46 -55.5t-54.5 -40.5t-54 -29.5v-4q99 -30 159 -96.5t60 -155.5q0 -81 -52 -143.5t-130.5 -92.5t-165.5 -30q-106 0 -202 41v211h20q24 -99 78 -152t121 -53q74 0 120 45.5t46 116.5 q0 23 -5.5 46.5t-20.5 52t-39 52t-64.5 43t-92.5 27.5v25l27 12q77 33 114.5 87.5t37.5 102.5q0 52 -36 80.5t-100 28.5q-65 0 -113 -35t-63 -98h-37zM377 0l1040 1485h135l-1038 -1485h-137zM1257 203v98l381 535h144v-498h137v-135h-137v-203h-164v203h-361zM1348 338h270 v377z" />
<glyph unicode="&#xbf;" horiz-adv-x="1175" d="M174 -160q0 78 27.5 146.5t71.5 120.5t97.5 101t107 97.5t97.5 99.5t71.5 117t27.5 140v24h61v-18q0 -99 -23 -186.5t-57.5 -148t-75 -123t-75 -113t-57.5 -116.5t-23 -135q0 -112 60 -169.5t171 -57.5q254 0 324 342h41v-352q-57 -26 -169.5 -45t-197.5 -19 q-230 0 -354.5 79t-124.5 216zM543 969q0 61 44.5 106t106.5 45q63 0 107.5 -44.5t44.5 -106.5t-44.5 -107t-107.5 -45q-61 0 -106 45t-45 107z" />
<glyph unicode="&#xc0;" horiz-adv-x="1599" d="M10 0v37q37 3 60 8t46.5 22t38.5 35.5t37.5 63.5t41 89.5t51.5 129.5l440 1110q70 10 115 70h8l526 -1323q18 -45 28 -69t25 -51t27.5 -39t33 -23.5t44 -16t57.5 -6.5v-37h-600v37q110 12 140 47t-1 113l-112 286h-596l-10 -28q-38 -97 -59.5 -161t-28.5 -111t-3.5 -72.5 t26.5 -41.5t49.5 -21.5t76.5 -10.5v-37h-461zM322 1888h321l170 -264h-43zM461 584h514l-256 655z" />
<glyph unicode="&#xc1;" horiz-adv-x="1599" d="M10 0v37q37 3 60 8t46.5 22t38.5 35.5t37.5 63.5t41 89.5t51.5 129.5l440 1110q70 10 115 70h8l526 -1323q18 -45 28 -69t25 -51t27.5 -39t33 -23.5t44 -16t57.5 -6.5v-37h-600v37q110 12 140 47t-1 113l-112 286h-596l-10 -28q-38 -97 -59.5 -161t-28.5 -111t-3.5 -72.5 t26.5 -41.5t49.5 -21.5t76.5 -10.5v-37h-461zM461 584h514l-256 655zM750 1624l170 264h321l-448 -264h-43z" />
<glyph unicode="&#xc2;" horiz-adv-x="1599" d="M10 0v37q37 3 60 8t46.5 22t38.5 35.5t37.5 63.5t41 89.5t51.5 129.5l440 1110q70 10 115 70h8l526 -1323q18 -45 28 -69t25 -51t27.5 -39t33 -23.5t44 -16t57.5 -6.5v-37h-600v37q110 12 140 47t-1 113l-112 286h-596l-10 -28q-38 -97 -59.5 -161t-28.5 -111t-3.5 -72.5 t26.5 -41.5t49.5 -21.5t76.5 -10.5v-37h-461zM461 584h514l-256 655zM492 1624l296 285h33l297 -285h-47l-266 121l-266 -121h-47z" />
<glyph unicode="&#xc3;" horiz-adv-x="1599" d="M10 0v37q37 3 60 8t46.5 22t38.5 35.5t37.5 63.5t41 89.5t51.5 129.5l440 1110q70 10 115 70h8l526 -1323q18 -45 28 -69t25 -51t27.5 -39t33 -23.5t44 -16t57.5 -6.5v-37h-600v37q110 12 140 47t-1 113l-112 286h-596l-10 -28q-38 -97 -59.5 -161t-28.5 -111t-3.5 -72.5 t26.5 -41.5t49.5 -21.5t76.5 -10.5v-37h-461zM461 584h514l-256 655zM487 1634q0 108 49 184t142 76q44 0 91.5 -19.5t81 -43t78.5 -43t85 -19.5q106 0 125 103h32q0 -69 -19.5 -126.5t-63.5 -95.5t-107 -38q-46 0 -92 19.5t-78.5 43t-77 43t-86.5 19.5q-108 0 -127 -103 h-33z" />
<glyph unicode="&#xc4;" horiz-adv-x="1599" d="M10 0v37q37 3 60 8t46.5 22t38.5 35.5t37.5 63.5t41 89.5t51.5 129.5l440 1110q70 10 115 70h8l526 -1323q18 -45 28 -69t25 -51t27.5 -39t33 -23.5t44 -16t57.5 -6.5v-37h-600v37q110 12 140 47t-1 113l-112 286h-596l-10 -28q-38 -97 -59.5 -161t-28.5 -111t-3.5 -72.5 t26.5 -41.5t49.5 -21.5t76.5 -10.5v-37h-461zM440 1761q0 56 37 93.5t94 37.5q53 0 90 -38t37 -93q0 -56 -37 -93.5t-90 -37.5q-57 0 -94 37t-37 94zM461 584h514l-256 655zM905 1761q0 56 37 93.5t94 37.5q53 0 91 -38t38 -93q0 -56 -38 -93.5t-91 -37.5q-57 0 -94 37 t-37 94z" />
<glyph unicode="&#xc5;" horiz-adv-x="1599" d="M10 0v37q37 3 60 8t46.5 22t38.5 35.5t37.5 63.5t41 89.5t51.5 129.5l440 1110q70 10 115 70h8l526 -1323q18 -45 28 -69t25 -51t27.5 -39t33 -23.5t44 -16t57.5 -6.5v-37h-600v37q110 12 140 47t-1 113l-112 286h-596l-10 -28q-38 -97 -59.5 -161t-28.5 -111t-3.5 -72.5 t26.5 -41.5t49.5 -21.5t76.5 -10.5v-37h-461zM461 584h514l-256 655zM606 1802q0 80 56 136.5t135 56.5t135.5 -56.5t56.5 -136.5q0 -78 -56.5 -134t-135.5 -56t-135 56t-56 134zM686 1802q0 -51 30.5 -82.5t80.5 -31.5q48 0 79 31.5t31 82.5t-31.5 84t-78.5 33 q-49 0 -80 -33t-31 -84z" />
<glyph unicode="&#xc6;" horiz-adv-x="2244" d="M-35 0v33q108 9 182 77t207 275l707 1100h524q307 0 461 6l55 -459h-37q-17 54 -35 98t-40 79.5t-43 63t-50 48.5t-55.5 35.5t-65.5 24.5t-72.5 16t-85 9t-94.5 4t-108 1h-117v-600h279q92 0 144.5 52.5t66.5 176.5h37v-548h-37q-14 124 -66.5 176.5t-144.5 52.5h-279 v-557q0 -58 17.5 -76t79.5 -18h39q105 0 177.5 5t144 19.5t120 40.5t94 69.5t80 105t64.5 147.5h38l-79 -459q-156 2 -459 2h-756v33q52 7 79.5 12t54.5 17.5t37.5 25.5t19.5 42t10.5 62.5t1.5 90.5v200h-537l-18 -28q-57 -88 -92 -147.5t-56 -108t-24.5 -76.5t10 -48 t40.5 -29t73 -13v-33h-492zM600 602h461v721z" />
<glyph unicode="&#xc7;" horiz-adv-x="1513" d="M102 752q0 176 64 323t173 245t253 152t305 54q240 0 438 -82l47 -451h-39q-56 243 -173 351t-310 108q-76 0 -146.5 -25t-134 -80.5t-110.5 -135.5t-74.5 -198.5t-27.5 -262.5q0 -317 138.5 -498.5t375.5 -181.5q103 0 191 31t149.5 83t103.5 111t66 125l55 -19 q-21 -82 -71 -157t-124 -136.5t-180 -98t-227 -36.5h-19l-84 -143q35 18 86 18q70 0 112 -41.5t42 -103.5q0 -94 -67.5 -143t-149.5 -49q-103 0 -201 59l21 45q56 -29 131 -29q58 0 92.5 26t34.5 71q0 44 -36.5 66.5t-83.5 20t-83 -23.5l-18 10l131 224q-199 20 -348 128 t-225.5 275t-76.5 369z" />
<glyph unicode="&#xc8;" horiz-adv-x="1464" d="M78 0v37q53 7 79.5 12t54 17t37.5 25.5t19.5 44.5t11 66.5t1.5 96.5v887q0 61 -1.5 96.5t-11 66.5t-19.5 44.5t-37.5 25.5t-54 17t-79.5 12v37h727q307 0 461 6l55 -459h-37q-17 54 -35 98t-40 79.5t-43 63t-50 48.5t-55.5 35.5t-65.5 24.5t-72.5 16t-85 9t-94.5 4 t-108 1h-115v-600h277q92 0 144.5 52.5t66.5 176.5h36v-548h-36q-14 124 -66.5 176.5t-144.5 52.5h-277v-557q0 -59 16.5 -76.5t77.5 -17.5h43q104 0 176.5 5t143 20t119 41t93.5 69.5t79.5 105t64.5 146.5h39l-80 -459q-156 2 -458 2h-756zM375 1888h321l170 -264h-43z" />
<glyph unicode="&#xc9;" horiz-adv-x="1464" d="M78 0v37q53 7 79.5 12t54 17t37.5 25.5t19.5 44.5t11 66.5t1.5 96.5v887q0 61 -1.5 96.5t-11 66.5t-19.5 44.5t-37.5 25.5t-54 17t-79.5 12v37h727q307 0 461 6l55 -459h-37q-17 54 -35 98t-40 79.5t-43 63t-50 48.5t-55.5 35.5t-65.5 24.5t-72.5 16t-85 9t-94.5 4 t-108 1h-115v-600h277q92 0 144.5 52.5t66.5 176.5h36v-548h-36q-14 124 -66.5 176.5t-144.5 52.5h-277v-557q0 -59 16.5 -76.5t77.5 -17.5h43q104 0 176.5 5t143 20t119 41t93.5 69.5t79.5 105t64.5 146.5h39l-80 -459q-156 2 -458 2h-756zM692 1624l170 264h322l-449 -264 h-43z" />
<glyph unicode="&#xca;" horiz-adv-x="1464" d="M78 0v37q53 7 79.5 12t54 17t37.5 25.5t19.5 44.5t11 66.5t1.5 96.5v887q0 61 -1.5 96.5t-11 66.5t-19.5 44.5t-37.5 25.5t-54 17t-79.5 12v37h727q307 0 461 6l55 -459h-37q-17 54 -35 98t-40 79.5t-43 63t-50 48.5t-55.5 35.5t-65.5 24.5t-72.5 16t-85 9t-94.5 4 t-108 1h-115v-600h277q92 0 144.5 52.5t66.5 176.5h36v-548h-36q-14 124 -66.5 176.5t-144.5 52.5h-277v-557q0 -59 16.5 -76.5t77.5 -17.5h43q104 0 176.5 5t143 20t119 41t93.5 69.5t79.5 105t64.5 146.5h39l-80 -459q-156 2 -458 2h-756zM449 1624l296 285h33l297 -285 h-47l-266 121l-266 -121h-47z" />
<glyph unicode="&#xcb;" horiz-adv-x="1464" d="M78 0v37q53 7 79.5 12t54 17t37.5 25.5t19.5 44.5t11 66.5t1.5 96.5v887q0 61 -1.5 96.5t-11 66.5t-19.5 44.5t-37.5 25.5t-54 17t-79.5 12v37h727q307 0 461 6l55 -459h-37q-17 54 -35 98t-40 79.5t-43 63t-50 48.5t-55.5 35.5t-65.5 24.5t-72.5 16t-85 9t-94.5 4 t-108 1h-115v-600h277q92 0 144.5 52.5t66.5 176.5h36v-548h-36q-14 124 -66.5 176.5t-144.5 52.5h-277v-557q0 -59 16.5 -76.5t77.5 -17.5h43q104 0 176.5 5t143 20t119 41t93.5 69.5t79.5 105t64.5 146.5h39l-80 -459q-156 2 -458 2h-756zM401 1761q0 56 37 93.5t94 37.5 q53 0 90 -38t37 -93q0 -56 -37 -93.5t-90 -37.5q-57 0 -94 37t-37 94zM866 1761q0 56 37 93.5t94 37.5q53 0 91 -38t38 -93q0 -56 -38 -93.5t-91 -37.5q-57 0 -94 37t-37 94z" />
<glyph unicode="&#xcc;" horiz-adv-x="800" d="M41 1888h321l170 -264h-43zM78 0v37q53 7 79.5 12t54 17t37.5 25.5t19.5 44.5t11 66.5t1.5 96.5v887q0 61 -1.5 96.5t-11 66.5t-19.5 44.5t-37.5 25.5t-54 17t-79.5 12v37h645v-37q-53 -7 -79.5 -12t-54 -17t-37.5 -25.5t-19.5 -44.5t-11 -66.5t-1.5 -96.5v-887 q0 -61 1.5 -96.5t11 -66.5t19.5 -44.5t37.5 -25.5t54 -17t79.5 -12v-37h-645z" />
<glyph unicode="&#xcd;" horiz-adv-x="800" d="M78 0v37q53 7 79.5 12t54 17t37.5 25.5t19.5 44.5t11 66.5t1.5 96.5v887q0 61 -1.5 96.5t-11 66.5t-19.5 44.5t-37.5 25.5t-54 17t-79.5 12v37h645v-37q-53 -7 -79.5 -12t-54 -17t-37.5 -25.5t-19.5 -44.5t-11 -66.5t-1.5 -96.5v-887q0 -61 1.5 -96.5t11 -66.5 t19.5 -44.5t37.5 -25.5t54 -17t79.5 -12v-37h-645zM299 1624l170 264h322l-449 -264h-43z" />
<glyph unicode="&#xce;" horiz-adv-x="800" d="M78 0v37q53 7 79.5 12t54 17t37.5 25.5t19.5 44.5t11 66.5t1.5 96.5v887q0 61 -1.5 96.5t-11 66.5t-19.5 44.5t-37.5 25.5t-54 17t-79.5 12v37h645v-37q-53 -7 -79.5 -12t-54 -17t-37.5 -25.5t-19.5 -44.5t-11 -66.5t-1.5 -96.5v-887q0 -61 1.5 -96.5t11 -66.5 t19.5 -44.5t37.5 -25.5t54 -17t79.5 -12v-37h-645zM80 1624l297 285h33l297 -285h-48l-266 121l-266 -121h-47z" />
<glyph unicode="&#xcf;" horiz-adv-x="800" d="M39 1761q0 56 37 93.5t94 37.5q53 0 90 -38t37 -93q0 -56 -37 -93.5t-90 -37.5q-57 0 -94 37t-37 94zM78 0v37q53 7 79.5 12t54 17t37.5 25.5t19.5 44.5t11 66.5t1.5 96.5v887q0 61 -1.5 96.5t-11 66.5t-19.5 44.5t-37.5 25.5t-54 17t-79.5 12v37h645v-37 q-53 -7 -79.5 -12t-54 -17t-37.5 -25.5t-19.5 -44.5t-11 -66.5t-1.5 -96.5v-887q0 -61 1.5 -96.5t11 -66.5t19.5 -44.5t37.5 -25.5t54 -17t79.5 -12v-37h-645zM504 1761q0 56 37 93.5t94 37.5q53 0 91 -38t38 -93q0 -56 -38 -93.5t-91 -37.5q-57 0 -94 37t-37 94z" />
<glyph unicode="&#xd0;" horiz-adv-x="1662" d="M94 721v90h213v375q0 61 -1.5 96.5t-11 66.5t-19.5 44.5t-37.5 25.5t-54 17t-79.5 12v37h648q128 0 243.5 -25.5t220.5 -82.5t181 -141t121 -209t45 -279q0 -153 -43.5 -279t-119 -212t-179.5 -144.5t-222 -85.5t-249 -27h-646v37q53 7 79.5 12t54 17t37.5 25.5 t19.5 44.5t11 66.5t1.5 96.5v422h-213zM547 74h201q255 0 402.5 174t147.5 500q0 323 -150.5 493t-406.5 170h-194v-600h303v-90h-303v-647z" />
<glyph unicode="&#xd1;" horiz-adv-x="1646" d="M74 0v37q53 7 79 12t53.5 17t37.5 26t19.5 44.5t11 66t1.5 96.5v983l-8 10q-52 68 -89.5 103.5t-80.5 56.5v33h326l889 -1125v826q0 61 -1.5 96.5t-11 66.5t-19.5 44.5t-37.5 25.5t-54 17t-79.5 12v37h500v-37q-53 -7 -79 -12t-54 -17t-37.5 -26t-19.5 -44t-11.5 -66 t-1.5 -97v-1202h-102l-934 1179v-864q0 -61 1.5 -96.5t11 -66t19.5 -44.5t37.5 -26t53.5 -17t79 -12v-37h-499zM547 1634q0 69 19.5 126.5t63.5 95.5t107 38q44 0 91.5 -19.5t81 -43t78.5 -43t85 -19.5q106 0 125 103h33q0 -108 -49 -184t-142 -76q-46 0 -92 19.5t-78 43 t-76.5 43t-86.5 19.5q-108 0 -127 -103h-33z" />
<glyph unicode="&#xd2;" d="M102 750q0 146 42 272t115.5 217.5t171 157t209 97.5t228.5 32t228.5 -32t209 -97.5t171 -157t115.5 -217.5t42 -272t-42 -272.5t-115.5 -217.5t-171 -156.5t-209 -98t-228.5 -32.5t-228.5 32.5t-209 98t-171 156.5t-115.5 217.5t-42 272.5zM369 750q0 -315 139 -509 t360 -194t360.5 194t139.5 509t-139.5 508.5t-360.5 193.5t-360 -193.5t-139 -508.5zM520 1888h322l170 -264h-43z" />
<glyph unicode="&#xd3;" d="M102 750q0 146 42 272t115.5 217.5t171 157t209 97.5t228.5 32t228.5 -32t209 -97.5t171 -157t115.5 -217.5t42 -272t-42 -272.5t-115.5 -217.5t-171 -156.5t-209 -98t-228.5 -32.5t-228.5 32.5t-209 98t-171 156.5t-115.5 217.5t-42 272.5zM369 750q0 -315 139 -509 t360 -194t360.5 194t139.5 509t-139.5 508.5t-360.5 193.5t-360 -193.5t-139 -508.5zM801 1624l170 264h321l-448 -264h-43z" />
<glyph unicode="&#xd4;" d="M102 750q0 146 42 272t115.5 217.5t171 157t209 97.5t228.5 32t228.5 -32t209 -97.5t171 -157t115.5 -217.5t42 -272t-42 -272.5t-115.5 -217.5t-171 -156.5t-209 -98t-228.5 -32.5t-228.5 32.5t-209 98t-171 156.5t-115.5 217.5t-42 272.5zM369 750q0 -315 139 -509 t360 -194t360.5 194t139.5 509t-139.5 508.5t-360.5 193.5t-360 -193.5t-139 -508.5zM555 1624l297 285h33l297 -285h-47l-267 121l-266 -121h-47z" />
<glyph unicode="&#xd5;" d="M102 750q0 146 42 272t115.5 217.5t171 157t209 97.5t228.5 32t228.5 -32t209 -97.5t171 -157t115.5 -217.5t42 -272t-42 -272.5t-115.5 -217.5t-171 -156.5t-209 -98t-228.5 -32.5t-228.5 32.5t-209 98t-171 156.5t-115.5 217.5t-42 272.5zM369 750q0 -315 139 -509 t360 -194t360.5 194t139.5 509t-139.5 508.5t-360.5 193.5t-360 -193.5t-139 -508.5zM532 1634q0 108 49 184t142 76q44 0 91.5 -19.5t81 -43t78.5 -43t85 -19.5q106 0 125 103h33q0 -108 -49 -184t-142 -76q-46 0 -92 19.5t-78.5 43t-77 43t-86.5 19.5q-108 0 -127 -103 h-33z" />
<glyph unicode="&#xd6;" d="M102 750q0 146 42 272t115.5 217.5t171 157t209 97.5t228.5 32t228.5 -32t209 -97.5t171 -157t115.5 -217.5t42 -272t-42 -272.5t-115.5 -217.5t-171 -156.5t-209 -98t-228.5 -32.5t-228.5 32.5t-209 98t-171 156.5t-115.5 217.5t-42 272.5zM369 750q0 -315 139 -509 t360 -194t360.5 194t139.5 509t-139.5 508.5t-360.5 193.5t-360 -193.5t-139 -508.5zM506 1761q0 56 37 93.5t94 37.5q53 0 90 -38t37 -93q0 -56 -37 -93.5t-90 -37.5q-57 0 -94 37t-37 94zM971 1761q0 56 37 93.5t94 37.5q53 0 91 -38t38 -93q0 -56 -38 -93.5t-91 -37.5 q-57 0 -94 37t-37 94z" />
<glyph unicode="&#xd7;" horiz-adv-x="1388" d="M213 184l375 377l-375 375l104 104l375 -374l375 374l104 -104l-372 -375l377 -381l-105 -104l-379 379l-375 -375z" />
<glyph unicode="&#xd8;" d="M102 750q0 146 42 272t115.5 217.5t171 157t209 97.5t228.5 32q200 0 377 -94l141 198l72 -47l-139 -197q146 -101 230.5 -262.5t84.5 -373.5q0 -146 -42 -272.5t-115.5 -217.5t-171 -156.5t-209 -98t-228.5 -32.5q-246 0 -448 136l-146 -207l-71 47l149 213 q-117 102 -183.5 251.5t-66.5 336.5zM369 750q0 -253 92 -435l710 1010q-127 127 -303 127q-221 0 -360 -193.5t-139 -508.5zM510 238q67 -92 158.5 -141.5t199.5 -49.5q221 0 360.5 194t139.5 509q0 308 -139 507z" />
<glyph unicode="&#xd9;" horiz-adv-x="1611" d="M43 1448v37h643v-37q-53 -7 -79 -12t-54 -17t-37.5 -26t-19.5 -44t-11.5 -66t-1.5 -97v-604q0 -506 385 -506q406 0 410 534v576q0 61 -1.5 97t-11.5 66t-19.5 44t-37.5 26t-54 17t-79 12v37h500v-37q-53 -7 -79.5 -12t-54 -17t-37.5 -25.5t-19.5 -44.5t-11 -66.5 t-1.5 -96.5v-574q0 -323 -139 -481t-424 -158q-563 0 -563 586v627q0 60 -1.5 96t-11 66t-20 44t-38 26.5t-54 17.5t-78.5 12zM475 1888h322l170 -264h-43z" />
<glyph unicode="&#xda;" horiz-adv-x="1611" d="M43 1448v37h643v-37q-53 -7 -79 -12t-54 -17t-37.5 -26t-19.5 -44t-11.5 -66t-1.5 -97v-604q0 -506 385 -506q406 0 410 534v576q0 61 -1.5 97t-11.5 66t-19.5 44t-37.5 26t-54 17t-79 12v37h500v-37q-53 -7 -79.5 -12t-54 -17t-37.5 -25.5t-19.5 -44.5t-11 -66.5 t-1.5 -96.5v-574q0 -323 -139 -481t-424 -158q-563 0 -563 586v627q0 60 -1.5 96t-11 66t-20 44t-38 26.5t-54 17.5t-78.5 12zM797 1624l170 264h321l-448 -264h-43z" />
<glyph unicode="&#xdb;" horiz-adv-x="1611" d="M43 1448v37h643v-37q-53 -7 -79 -12t-54 -17t-37.5 -26t-19.5 -44t-11.5 -66t-1.5 -97v-604q0 -506 385 -506q406 0 410 534v576q0 61 -1.5 97t-11.5 66t-19.5 44t-37.5 26t-54 17t-79 12v37h500v-37q-53 -7 -79.5 -12t-54 -17t-37.5 -25.5t-19.5 -44.5t-11 -66.5 t-1.5 -96.5v-574q0 -323 -139 -481t-424 -158q-563 0 -563 586v627q0 60 -1.5 96t-11 66t-20 44t-38 26.5t-54 17.5t-78.5 12zM559 1624l297 285h33l297 -285h-47l-267 121l-266 -121h-47z" />
<glyph unicode="&#xdc;" horiz-adv-x="1611" d="M43 1448v37h643v-37q-53 -7 -79 -12t-54 -17t-37.5 -26t-19.5 -44t-11.5 -66t-1.5 -97v-604q0 -506 385 -506q406 0 410 534v576q0 61 -1.5 97t-11.5 66t-19.5 44t-37.5 26t-54 17t-79 12v37h500v-37q-53 -7 -79.5 -12t-54 -17t-37.5 -25.5t-19.5 -44.5t-11 -66.5 t-1.5 -96.5v-574q0 -323 -139 -481t-424 -158q-563 0 -563 586v627q0 60 -1.5 96t-11 66t-20 44t-38 26.5t-54 17.5t-78.5 12zM510 1761q0 56 37 93.5t94 37.5q53 0 90 -38t37 -93q0 -56 -37 -93.5t-90 -37.5q-57 0 -94 37t-37 94zM975 1761q0 56 37 93.5t94 37.5 q53 0 91 -38t38 -93q0 -56 -38 -93.5t-91 -37.5q-57 0 -94 37t-37 94z" />
<glyph unicode="&#xdd;" horiz-adv-x="1486" d="M8 1448v37h602v-37q-71 -8 -108 -25t-46 -48.5t19 -78.5l330 -594l268 457q65 110 77 171.5t-17.5 86.5t-104.5 31v37h451v-37q-86 -14 -142.5 -61.5t-126.5 -167.5l-366 -625v-295q-1 -57 1 -91t11 -64.5t22.5 -46.5t41 -29t61.5 -18.5t88 -10.5v-39h-690v39 q54 5 88 10.5t61 19t40.5 28.5t22.5 46t11 65t2 91v285l-383 667q-63 110 -103 147.5t-110 49.5zM743 1624l170 264h322l-449 -264h-43z" />
<glyph unicode="&#xde;" horiz-adv-x="1370" d="M78 0v37q53 7 79.5 12t54 17t37.5 25.5t19.5 44.5t11 66.5t1.5 96.5v887q0 61 -1.5 96.5t-11 66.5t-19.5 44.5t-37.5 25.5t-54 17t-79.5 12v37h442v-246h187q643 0 643 -430t-643 -430h-187v-82q0 -46 0.5 -69.5t3.5 -54t8.5 -44t17 -31t26 -24.5t39.5 -15.5t54 -12 t72 -7.5v-39h-663zM520 455h168q99 0 168.5 16t123 54.5t79.5 109t26 174.5q0 105 -26 175.5t-79.5 109.5t-123 55t-168.5 16h-168v-710z" />
<glyph unicode="&#xdf;" horiz-adv-x="1378" d="M84 0v37q26 3 44 5.5t35 8.5t28 9.5t20.5 14.5t15 18t10 25.5t6.5 31t3.5 40t1.5 47v58.5v731q0 180 61.5 318.5t178 217t272.5 78.5q196 0 306 -83t110 -216q0 -107 -78.5 -198.5t-188.5 -141.5v-6q171 -70 271 -210.5t100 -305.5q0 -143 -67.5 -260t-179 -181.5 t-240.5 -64.5q-132 0 -248 29v152h4q68 -55 121.5 -80t122.5 -25q82 0 143.5 48.5t92 126t30.5 171.5q0 60 -14 118.5t-45.5 116.5t-78 105t-116 83t-154.5 52v45l47 21q100 41 164.5 104t89.5 128.5t25 138.5q0 260 -232 260q-282 0 -282 -492v-659l4 -416h-383z" />
<glyph unicode="&#xe0;" horiz-adv-x="1128" d="M80 221q0 93 68.5 165t211.5 144q86 44 367 168l2 50q3 156 -49.5 223t-157.5 67q-124 0 -175.5 -71t-43.5 -205h-194q4 92 66.5 174t168.5 132t227 50q77 0 139.5 -16.5t115.5 -54t81.5 -108t26.5 -169.5l-10 -526q-1 -83 14.5 -110.5t56.5 -27.5q42 0 90 41l23 -22 q-29 -36 -45.5 -54t-45 -43.5t-58.5 -36.5t-64 -11q-74 0 -123.5 46.5t-48.5 153.5q-110 -207 -338 -207q-132 0 -218.5 71.5t-86.5 176.5zM229 1581h265l149 -346h-33zM297 291q0 -86 54 -133t145 -47q148 0 223 114l6 381q-106 -32 -184.5 -65.5t-124.5 -64t-73.5 -64 t-36.5 -61.5t-9 -60z" />
<glyph unicode="&#xe1;" horiz-adv-x="1128" d="M80 221q0 93 68.5 165t211.5 144q86 44 367 168l2 50q3 156 -49.5 223t-157.5 67q-124 0 -175.5 -71t-43.5 -205h-194q4 92 66.5 174t168.5 132t227 50q77 0 139.5 -16.5t115.5 -54t81.5 -108t26.5 -169.5l-10 -526q-1 -83 14.5 -110.5t56.5 -27.5q42 0 90 41l23 -22 q-29 -36 -45.5 -54t-45 -43.5t-58.5 -36.5t-64 -11q-74 0 -123.5 46.5t-48.5 153.5q-110 -207 -338 -207q-132 0 -218.5 71.5t-86.5 176.5zM297 291q0 -86 54 -133t145 -47q148 0 223 114l6 381q-106 -32 -184.5 -65.5t-124.5 -64t-73.5 -64t-36.5 -61.5t-9 -60zM514 1235 l150 346h264l-381 -346h-33z" />
<glyph unicode="&#xe2;" horiz-adv-x="1128" d="M80 221q0 93 68.5 165t211.5 144q86 44 367 168l2 50q3 156 -49.5 223t-157.5 67q-124 0 -175.5 -71t-43.5 -205h-194q4 92 66.5 174t168.5 132t227 50q77 0 139.5 -16.5t115.5 -54t81.5 -108t26.5 -169.5l-10 -526q-1 -83 14.5 -110.5t56.5 -27.5q42 0 90 41l23 -22 q-29 -36 -45.5 -54t-45 -43.5t-58.5 -36.5t-64 -11q-74 0 -123.5 46.5t-48.5 153.5q-110 -207 -338 -207q-132 0 -218.5 71.5t-86.5 176.5zM223 1235l324 346h26l324 -346h-41l-297 166l-297 -166h-39zM297 291q0 -86 54 -133t145 -47q148 0 223 114l6 381 q-106 -32 -184.5 -65.5t-124.5 -64t-73.5 -64t-36.5 -61.5t-9 -60z" />
<glyph unicode="&#xe3;" horiz-adv-x="1128" d="M80 221q0 93 68.5 165t211.5 144q86 44 367 168l2 50q3 156 -49.5 223t-157.5 67q-124 0 -175.5 -71t-43.5 -205h-194q4 92 66.5 174t168.5 132t227 50q77 0 139.5 -16.5t115.5 -54t81.5 -108t26.5 -169.5l-10 -526q-1 -83 14.5 -110.5t56.5 -27.5q42 0 90 41l23 -22 q-29 -36 -45.5 -54t-45 -43.5t-58.5 -36.5t-64 -11q-74 0 -123.5 46.5t-48.5 153.5q-110 -207 -338 -207q-132 0 -218.5 71.5t-86.5 176.5zM223 1300q0 67 18.5 128t64 106t110.5 45q39 0 84.5 -20t79.5 -44.5t74.5 -44.5t70.5 -20q56 0 83 29t30 94h39q-2 -268 -177 -268 q-46 0 -93 20t-79 44.5t-73.5 44.5t-77.5 20q-50 0 -80.5 -35.5t-34.5 -98.5h-39zM297 291q0 -86 54 -133t145 -47q148 0 223 114l6 381q-106 -32 -184.5 -65.5t-124.5 -64t-73.5 -64t-36.5 -61.5t-9 -60z" />
<glyph unicode="&#xe4;" horiz-adv-x="1128" d="M80 221q0 93 68.5 165t211.5 144q86 44 367 168l2 50q3 156 -49.5 223t-157.5 67q-124 0 -175.5 -71t-43.5 -205h-194q4 92 66.5 174t168.5 132t227 50q77 0 139.5 -16.5t115.5 -54t81.5 -108t26.5 -169.5l-10 -526q-1 -83 14.5 -110.5t56.5 -27.5q42 0 90 41l23 -22 q-29 -36 -45.5 -54t-45 -43.5t-58.5 -36.5t-64 -11q-74 0 -123.5 46.5t-48.5 153.5q-110 -207 -338 -207q-132 0 -218.5 71.5t-86.5 176.5zM209 1452q0 56 37 92.5t94 36.5q53 0 90 -37t37 -92q0 -58 -37 -95.5t-90 -37.5q-57 0 -94 37.5t-37 95.5zM297 291q0 -86 54 -133 t145 -47q148 0 223 114l6 381q-106 -32 -184.5 -65.5t-124.5 -64t-73.5 -64t-36.5 -61.5t-9 -60zM657 1452q0 55 38.5 92t95.5 37q53 0 90 -37t37 -92q0 -58 -37 -95.5t-90 -37.5q-57 0 -95.5 37.5t-38.5 95.5z" />
<glyph unicode="&#xe5;" horiz-adv-x="1128" d="M80 221q0 93 68.5 165t211.5 144q86 44 367 168l2 50q3 156 -49.5 223t-157.5 67q-124 0 -175.5 -71t-43.5 -205h-194q4 92 66.5 174t168.5 132t227 50q77 0 139.5 -16.5t115.5 -54t81.5 -108t26.5 -169.5l-10 -526q-1 -83 14.5 -110.5t56.5 -27.5q42 0 90 41l23 -22 q-29 -36 -45.5 -54t-45 -43.5t-58.5 -36.5t-64 -11q-74 0 -123.5 46.5t-48.5 153.5q-110 -207 -338 -207q-132 0 -218.5 71.5t-86.5 176.5zM297 291q0 -86 54 -133t145 -47q148 0 223 114l6 381q-106 -32 -184.5 -65.5t-124.5 -64t-73.5 -64t-36.5 -61.5t-9 -60zM362 1434 q0 81 55.5 136.5t135.5 55.5t136 -55.5t56 -136.5q0 -78 -56.5 -134.5t-135.5 -56.5t-135 56.5t-56 134.5zM442 1434q0 -51 30.5 -82t80.5 -31q48 0 79.5 31.5t31.5 81.5q0 51 -31.5 83.5t-79.5 32.5q-49 0 -80 -32.5t-31 -83.5z" />
<glyph unicode="&#xe6;" horiz-adv-x="1712" d="M78 246q0 61 24.5 110.5t72 86.5t95.5 62.5t115 51.5q127 51 334 111l2 77q3 155 -50.5 224t-158.5 69q-243 0 -219 -286h-187q7 72 36 133t73.5 104t101.5 73t118.5 44t125.5 14q227 0 303 -164q67 78 156 121t190 43q91 0 167 -27.5t134 -81t91 -139.5t34 -196h-729 v-53q0 -219 115 -344t295 -125q178 0 293 108l22 -20q-154 -269 -430 -269q-152 0 -257 67t-161 187q-59 -131 -163 -192.5t-238 -61.5q-132 0 -218.5 80t-86.5 193zM289 303q0 -83 57.5 -134.5t145.5 -51.5q57 0 118.5 25t100.5 73l6 365q-123 -21 -217.5 -55.5 t-128.5 -61.5q-82 -59 -82 -160zM911 756h490q2 128 -59.5 208t-172.5 80q-96 0 -170.5 -73.5t-87.5 -214.5z" />
<glyph unicode="&#xe7;" horiz-adv-x="1040" d="M78 526q0 136 47 249.5t126 188t181.5 115.5t214.5 41q126 0 212.5 -62.5t86.5 -144.5q0 -47 -32 -78.5t-85 -31.5q-67 0 -96 57l-65 135q-11 24 -29 32.5t-49 8.5q-46 0 -89.5 -13.5t-85 -44.5t-72.5 -77t-50 -116t-19 -156q0 -97 25.5 -182t73.5 -150.5t123.5 -103 t169.5 -37.5q75 0 153 30t139 84l23 -20q-166 -275 -426 -277l-84 -143q37 18 86 18q70 0 114 -42t44 -103q0 -49 -21 -87.5t-55 -60.5t-71.5 -33t-75.5 -11q-101 0 -199 59l20 45q63 -29 131 -29q58 0 93.5 26t35.5 71q0 44 -36.5 66.5t-84 20t-83.5 -23.5l-19 10l131 221 q-132 17 -224.5 96.5t-135.5 195t-43 257.5z" />
<glyph unicode="&#xe8;" horiz-adv-x="1097" d="M78 539q0 158 68 292t184.5 211.5t253.5 77.5q187 0 309 -114t135 -330h-756v-10q0 -231 106 -370.5t292 -139.5q192 0 329 133l25 -21q-33 -57 -74 -106t-96.5 -93.5t-129 -70t-155.5 -25.5q-122 0 -216.5 43t-154 119.5t-90 179t-30.5 224.5zM213 1581h264l150 -346 h-33zM276 756h504q-6 136 -66.5 212t-168.5 76q-105 0 -178 -72t-91 -216z" />
<glyph unicode="&#xe9;" horiz-adv-x="1097" d="M78 539q0 158 68 292t184.5 211.5t253.5 77.5q187 0 309 -114t135 -330h-756v-10q0 -231 106 -370.5t292 -139.5q192 0 329 133l25 -21q-33 -57 -74 -106t-96.5 -93.5t-129 -70t-155.5 -25.5q-122 0 -216.5 43t-154 119.5t-90 179t-30.5 224.5zM276 756h504 q-6 136 -66.5 212t-168.5 76q-105 0 -178 -72t-91 -216zM508 1235l149 346h265l-381 -346h-33z" />
<glyph unicode="&#xea;" horiz-adv-x="1097" d="M78 539q0 158 68 292t184.5 211.5t253.5 77.5q187 0 309 -114t135 -330h-756v-10q0 -231 106 -370.5t292 -139.5q192 0 329 133l25 -21q-33 -57 -74 -106t-96.5 -93.5t-129 -70t-155.5 -25.5q-122 0 -216.5 43t-154 119.5t-90 179t-30.5 224.5zM238 1235l323 346h27 l323 -346h-41l-297 166l-297 -166h-38zM276 756h504q-6 136 -66.5 212t-168.5 76q-105 0 -178 -72t-91 -216z" />
<glyph unicode="&#xeb;" horiz-adv-x="1097" d="M78 539q0 158 68 292t184.5 211.5t253.5 77.5q187 0 309 -114t135 -330h-756v-10q0 -231 106 -370.5t292 -139.5q192 0 329 133l25 -21q-33 -57 -74 -106t-96.5 -93.5t-129 -70t-155.5 -25.5q-122 0 -216.5 43t-154 119.5t-90 179t-30.5 224.5zM229 1452q0 56 37 92.5 t94 36.5q53 0 90 -37t37 -92q0 -58 -37 -95.5t-90 -37.5q-57 0 -94 37.5t-37 95.5zM276 756h504q-6 136 -66.5 212t-168.5 76q-105 0 -178 -72t-91 -216zM678 1452q0 55 38 92t95 37q53 0 90 -37t37 -92q0 -58 -37 -95.5t-90 -37.5q-57 0 -95 37.5t-38 95.5z" />
<glyph unicode="&#xec;" horiz-adv-x="694" d="M27 1581h264l149 -346h-32zM82 0v37q26 3 44 5.5t35 8.5t28 9.5t20.5 14.5t15 18t10 25.5t6.5 31t3.5 40t1.5 47v58.5v455v56t-2 44t-2.5 35t-7 25t-9 19.5t-16 12t-20 8.5t-28.5 3.5t-34.5 2.5h-44.5v37l385 127q-4 -218 -4 -448v-377v-58.5t1.5 -47t3.5 -40t6.5 -31 t10 -25.5t15 -18t20.5 -14.5t28 -9.5t35 -8.5t44 -5.5v-37h-545z" />
<glyph unicode="&#xed;" horiz-adv-x="694" d="M82 0v37q26 3 44 5.5t35 8.5t28 9.5t20.5 14.5t15 18t10 25.5t6.5 31t3.5 40t1.5 47v58.5v455v56t-2 44t-2.5 35t-7 25t-9 19.5t-16 12t-20 8.5t-28.5 3.5t-34.5 2.5h-44.5v37l385 127q-4 -218 -4 -448v-377v-58.5t1.5 -47t3.5 -40t6.5 -31t10 -25.5t15 -18t20.5 -14.5 t28 -9.5t35 -8.5t44 -5.5v-37h-545zM231 1235l150 346h264l-381 -346h-33z" />
<glyph unicode="&#xee;" horiz-adv-x="694" d="M4 1235l324 346h26l324 -346h-41l-297 166l-297 -166h-39zM82 0v37q26 3 44 5.5t35 8.5t28 9.5t20.5 14.5t15 18t10 25.5t6.5 31t3.5 40t1.5 47v58.5v455v56t-2 44t-2.5 35t-7 25t-9 19.5t-16 12t-20 8.5t-28.5 3.5t-34.5 2.5h-44.5v37l385 127q-4 -218 -4 -448v-377 v-58.5t1.5 -47t3.5 -40t6.5 -31t10 -25.5t15 -18t20.5 -14.5t28 -9.5t35 -8.5t44 -5.5v-37h-545z" />
<glyph unicode="&#xef;" horiz-adv-x="694" d="M-12 1452q0 56 37 92.5t94 36.5q53 0 90 -37t37 -92q0 -58 -37 -95.5t-90 -37.5q-57 0 -94 37.5t-37 95.5zM82 0v37q26 3 44 5.5t35 8.5t28 9.5t20.5 14.5t15 18t10 25.5t6.5 31t3.5 40t1.5 47v58.5v455v56t-2 44t-2.5 35t-7 25t-9 19.5t-16 12t-20 8.5t-28.5 3.5 t-34.5 2.5h-44.5v37l385 127q-4 -218 -4 -448v-377v-58.5t1.5 -47t3.5 -40t6.5 -31t10 -25.5t15 -18t20.5 -14.5t28 -9.5t35 -8.5t44 -5.5v-37h-545zM436 1452q0 55 38 92t95 37q53 0 90 -37t37 -92q0 -58 -37 -95.5t-90 -37.5q-57 0 -95 37.5t-38 95.5z" />
<glyph unicode="&#xf0;" horiz-adv-x="1212" d="M76 518q0 128 45 241.5t118.5 191t168.5 122.5t194 45q96 0 170 -47q-102 201 -305 326l-150 -164l-49 43l142 156q-86 45 -213 88l14 39q127 -21 252 -68l125 137l51 -43l-111 -121q126 -57 232.5 -139t188 -184t127.5 -229t46 -263q0 -197 -63 -350t-183 -239.5 t-278 -86.5q-146 0 -264.5 67t-188 192.5t-69.5 285.5zM313 604q0 -149 34 -273t106 -204t170 -80q55 0 100 25t81.5 79t56.5 148t20 223q0 234 -56 418q-34 48 -94 77.5t-127 29.5q-145 0 -218 -120.5t-73 -322.5z" />
<glyph unicode="&#xf1;" horiz-adv-x="1243" d="M35 0v37q26 3 44 5.5t35 8.5t28 9.5t20.5 14.5t15 18t10 25.5t6.5 31t3.5 40t1.5 47v58.5v461v66t-3.5 48t-5 36.5t-13.5 23t-18.5 15.5t-30 6.5t-39 4.5h-54.5v37l379 127l2 -188q34 41 62.5 69.5t69.5 58t89.5 45t103.5 15.5q141 0 226.5 -97.5t85.5 -291.5v-436v-58.5 t1.5 -47t3.5 -40t6.5 -31t10 -25.5t15 -18t20.5 -14.5t28 -9.5t35 -8.5t44 -5.5v-37h-541v37q25 3 43 5.5t34.5 8.5t27 9.5t20 14.5t15 18t10 25.5t6 31t3 40t1.5 47v58.5v393q0 143 -50 213t-155 70q-65 0 -124 -24.5t-91 -69.5v-582v-58t1.5 -47.5t3 -40.5t6 -30.5 t9.5 -25.5t14.5 -18t20.5 -14.5t27 -9.5t34 -8.5t43 -5.5v-37h-540zM295 1300q0 49 11 96.5t33 89.5t60.5 67.5t87.5 25.5t107.5 -32.5t112 -64.5t90.5 -32q56 0 82.5 28.5t29.5 94.5h39q-2 -268 -176 -268q-46 0 -93 20t-79 44.5t-73.5 44.5t-77.5 20q-50 0 -80.5 -35.5 t-34.5 -98.5h-39z" />
<glyph unicode="&#xf2;" horiz-adv-x="1277" d="M80 549q0 117 42.5 222.5t115.5 182t174.5 121.5t214.5 45q148 0 275.5 -71.5t206.5 -204t79 -295.5q0 -157 -72.5 -289.5t-198.5 -209.5t-276 -77q-147 0 -275 72.5t-207 206t-79 297.5zM274 1581h265l149 -346h-33zM313 621q0 -65 11.5 -137.5t39 -150t66.5 -139 t100.5 -101.5t135.5 -40q141 0 213.5 111.5t72.5 310.5q0 53 -8 112t-24.5 123.5t-45 122.5t-65 105t-89 74.5t-114.5 27.5q-145 0 -219 -110.5t-74 -308.5z" />
<glyph unicode="&#xf3;" horiz-adv-x="1277" d="M80 549q0 117 42.5 222.5t115.5 182t174.5 121.5t214.5 45q148 0 275.5 -71.5t206.5 -204t79 -295.5q0 -157 -72.5 -289.5t-198.5 -209.5t-276 -77q-147 0 -275 72.5t-207 206t-79 297.5zM313 621q0 -65 11.5 -137.5t39 -150t66.5 -139t100.5 -101.5t135.5 -40 q141 0 213.5 111.5t72.5 310.5q0 53 -8 112t-24.5 123.5t-45 122.5t-65 105t-89 74.5t-114.5 27.5q-145 0 -219 -110.5t-74 -308.5zM561 1235l150 346h264l-381 -346h-33z" />
<glyph unicode="&#xf4;" horiz-adv-x="1277" d="M80 549q0 117 42.5 222.5t115.5 182t174.5 121.5t214.5 45q148 0 275.5 -71.5t206.5 -204t79 -295.5q0 -157 -72.5 -289.5t-198.5 -209.5t-276 -77q-147 0 -275 72.5t-207 206t-79 297.5zM297 1235l324 346h26l324 -346h-41l-297 166l-297 -166h-39zM313 621 q0 -65 11.5 -137.5t39 -150t66.5 -139t100.5 -101.5t135.5 -40q141 0 213.5 111.5t72.5 310.5q0 53 -8 112t-24.5 123.5t-45 122.5t-65 105t-89 74.5t-114.5 27.5q-145 0 -219 -110.5t-74 -308.5z" />
<glyph unicode="&#xf5;" horiz-adv-x="1277" d="M80 549q0 117 42.5 222.5t115.5 182t174.5 121.5t214.5 45q148 0 275.5 -71.5t206.5 -204t79 -295.5q0 -157 -72.5 -289.5t-198.5 -209.5t-276 -77q-147 0 -275 72.5t-207 206t-79 297.5zM307 1300q0 67 18.5 128t64 106t110.5 45q39 0 84.5 -20t79.5 -44.5t74.5 -44.5 t70.5 -20q56 0 83 29t30 94h39q-2 -268 -177 -268q-46 0 -93 20t-79 44.5t-73.5 44.5t-77.5 20q-50 0 -80.5 -35.5t-34.5 -98.5h-39zM313 621q0 -65 11.5 -137.5t39 -150t66.5 -139t100.5 -101.5t135.5 -40q141 0 213.5 111.5t72.5 310.5q0 53 -8 112t-24.5 123.5t-45 122.5 t-65 105t-89 74.5t-114.5 27.5q-145 0 -219 -110.5t-74 -308.5z" />
<glyph unicode="&#xf6;" horiz-adv-x="1277" d="M80 549q0 117 42.5 222.5t115.5 182t174.5 121.5t214.5 45q148 0 275.5 -71.5t206.5 -204t79 -295.5q0 -157 -72.5 -289.5t-198.5 -209.5t-276 -77q-147 0 -275 72.5t-207 206t-79 297.5zM283 1452q0 56 37 92.5t94 36.5q53 0 90 -37t37 -92q0 -58 -37 -95.5t-90 -37.5 q-57 0 -94 37.5t-37 95.5zM313 621q0 -65 11.5 -137.5t39 -150t66.5 -139t100.5 -101.5t135.5 -40q141 0 213.5 111.5t72.5 310.5q0 53 -8 112t-24.5 123.5t-45 122.5t-65 105t-89 74.5t-114.5 27.5q-145 0 -219 -110.5t-74 -308.5zM731 1452q0 55 38 92t95 37q53 0 90 -37 t37 -92q0 -58 -37 -95.5t-90 -37.5q-57 0 -95 37.5t-38 95.5z" />
<glyph unicode="&#xf7;" horiz-adv-x="1388" d="M166 487v140h1059v-140h-1059zM600 121v209h199v-209h-199zM600 788v211h199v-211h-199z" />
<glyph unicode="&#xf8;" horiz-adv-x="1277" d="M80 549q0 117 42.5 222.5t115.5 182t174.5 121.5t214.5 45q168 0 313 -96l98 133l70 -49l-102 -137q86 -79 134 -187t48 -235q0 -157 -72.5 -289.5t-198.5 -209.5t-276 -77q-162 0 -301 90l-125 -169l-70 49l125 172q-89 79 -139.5 190.5t-50.5 243.5zM313 621 q0 -182 74 -349l457 619q-93 149 -238 149t-219 -110.5t-74 -308.5zM432 190q92 -137 234 -137q141 0 213.5 111.5t72.5 310.5q0 172 -65 332z" />
<glyph unicode="&#xf9;" horiz-adv-x="1202" d="M8 1036v37l377 37q-4 -212 -4 -408v-278q0 -154 47 -228.5t147 -74.5q138 0 218 127v581v46.5t-1 38t-3 32.5t-6 25t-9.5 21.5t-14.5 15t-20 12t-27 7t-34.5 6.5t-42.5 3v37l381 37q-6 -318 -6 -410v-364v-64t3 -47t5.5 -36.5t12 -23.5t18.5 -17t29 -8.5t38.5 -6.5 t52.5 -2v-35l-344 -112l-26 198q-48 -86 -131.5 -147.5t-184.5 -61.5q-143 0 -232 100.5t-89 309.5q0 59 2 222t2 224v46.5t-1 38t-3 32.5t-6 25t-9.5 21.5t-14.5 15t-20 12t-27 7t-34.5 6.5t-42.5 3zM260 1581h264l150 -346h-33z" />
<glyph unicode="&#xfa;" horiz-adv-x="1202" d="M8 1036v37l377 37q-4 -212 -4 -408v-278q0 -154 47 -228.5t147 -74.5q138 0 218 127v581v46.5t-1 38t-3 32.5t-6 25t-9.5 21.5t-14.5 15t-20 12t-27 7t-34.5 6.5t-42.5 3v37l381 37q-6 -318 -6 -410v-364v-64t3 -47t5.5 -36.5t12 -23.5t18.5 -17t29 -8.5t38.5 -6.5 t52.5 -2v-35l-344 -112l-26 198q-48 -86 -131.5 -147.5t-184.5 -61.5q-143 0 -232 100.5t-89 309.5q0 59 2 222t2 224v46.5t-1 38t-3 32.5t-6 25t-9.5 21.5t-14.5 15t-20 12t-27 7t-34.5 6.5t-42.5 3zM539 1235l149 346h264l-381 -346h-32z" />
<glyph unicode="&#xfb;" horiz-adv-x="1202" d="M8 1036v37l377 37q-4 -212 -4 -408v-278q0 -154 47 -228.5t147 -74.5q138 0 218 127v581v46.5t-1 38t-3 32.5t-6 25t-9.5 21.5t-14.5 15t-20 12t-27 7t-34.5 6.5t-42.5 3v37l381 37q-6 -318 -6 -410v-364v-64t3 -47t5.5 -36.5t12 -23.5t18.5 -17t29 -8.5t38.5 -6.5 t52.5 -2v-35l-344 -112l-26 198q-48 -86 -131.5 -147.5t-184.5 -61.5q-143 0 -232 100.5t-89 309.5q0 59 2 222t2 224v46.5t-1 38t-3 32.5t-6 25t-9.5 21.5t-14.5 15t-20 12t-27 7t-34.5 6.5t-42.5 3zM250 1235l323 346h27l324 -346h-41l-297 166l-297 -166h-39z" />
<glyph unicode="&#xfc;" horiz-adv-x="1202" d="M8 1036v37l377 37q-4 -212 -4 -408v-278q0 -154 47 -228.5t147 -74.5q138 0 218 127v581v46.5t-1 38t-3 32.5t-6 25t-9.5 21.5t-14.5 15t-20 12t-27 7t-34.5 6.5t-42.5 3v37l381 37q-6 -318 -6 -410v-364v-64t3 -47t5.5 -36.5t12 -23.5t18.5 -17t29 -8.5t38.5 -6.5 t52.5 -2v-35l-344 -112l-26 198q-48 -86 -131.5 -147.5t-184.5 -61.5q-143 0 -232 100.5t-89 309.5q0 59 2 222t2 224v46.5t-1 38t-3 32.5t-6 25t-9.5 21.5t-14.5 15t-20 12t-27 7t-34.5 6.5t-42.5 3zM223 1452q0 56 37 92.5t94 36.5q53 0 90 -37t37 -92q0 -58 -37 -95.5 t-90 -37.5q-57 0 -94 37.5t-37 95.5zM672 1452q0 55 38 92t95 37q53 0 90 -37t37 -92q0 -58 -37 -95.5t-90 -37.5q-57 0 -95 37.5t-38 95.5z" />
<glyph unicode="&#xfd;" horiz-adv-x="1210" d="M8 1065v37h504v-37q-58 -3 -90 -14t-40.5 -34t-4 -47.5t21.5 -66.5l267 -641l221 535q59 133 45 191.5t-121 76.5v37h391v-37q-75 -13 -103.5 -47.5t-76.5 -151.5l-428 -1013q-30 -71 -48 -109.5t-45 -82.5t-52 -65t-60.5 -35t-79.5 -14q-80 0 -128 36.5t-48 97.5 q0 50 30 83t66 33q31 0 62 -33l102 -100q46 74 113 234l39 94l-398 936q-33 77 -58 105t-81 32zM618 1235l150 346h264l-381 -346h-33z" />
<glyph unicode="&#xfe;" horiz-adv-x="1312" d="M84 -406q32 4 53.5 7.5t40 11.5t29.5 14.5t19.5 24.5t12.5 30.5t6 44t2.5 55t0.5 71.5v1468v66t-3.5 48.5t-5.5 36.5t-13.5 23t-18.5 15.5t-30.5 6.5t-39 4.5t-53.5 0.5v37l385 127q-4 -218 -4 -449v-125l-6 -176q148 184 327 184q131 0 232.5 -74t154 -195.5 t52.5 -266.5q0 -128 -43.5 -242.5t-115.5 -194.5t-166 -127t-193 -47q-152 0 -242 88v-208v-75.5t3.5 -57t7.5 -44.5t15.5 -29.5t24 -22.5t37 -13t50 -10.5t67.5 -6.5v-36h-586v36zM465 180q31 -66 96 -100.5t146 -34.5q96 0 162.5 62t96 162.5t29.5 232.5q0 211 -90.5 340 t-238.5 129q-138 0 -201 -86v-705z" />
<glyph unicode="&#xff;" horiz-adv-x="1210" d="M8 1065v37h504v-37q-58 -3 -90 -14t-40.5 -34t-4 -47.5t21.5 -66.5l267 -641l221 535q59 133 45 191.5t-121 76.5v37h391v-37q-75 -13 -103.5 -47.5t-76.5 -151.5l-428 -1013q-30 -71 -48 -109.5t-45 -82.5t-52 -65t-60.5 -35t-79.5 -14q-80 0 -128 36.5t-48 97.5 q0 50 30 83t66 33q31 0 62 -33l102 -100q46 74 113 234l39 94l-398 936q-33 77 -58 105t-81 32zM295 1452q0 56 37 92.5t94 36.5q53 0 90 -37t37 -92q0 -58 -37 -95.5t-90 -37.5q-57 0 -94 37.5t-37 95.5zM743 1452q0 55 38.5 92t95.5 37q53 0 90 -37t37 -92 q0 -58 -37 -95.5t-90 -37.5q-57 0 -95.5 37.5t-38.5 95.5z" />
<glyph unicode="&#x152;" horiz-adv-x="2539" d="M102 750q0 146 42 272t115.5 217.5t171 157t209 97.5t228.5 32q159 0 290.5 -60.5t223.5 -177.5v197h500q305 0 459 6l57 -459h-37q-19 60 -40.5 107.5t-43.5 85.5t-51.5 65.5t-57 47.5t-68.5 33.5t-76.5 21.5t-90.5 12t-102 5t-119 1h-117v-600h279q92 0 144.5 52.5 t66.5 176.5h37v-548h-37q-14 124 -66.5 176.5t-144.5 52.5h-279v-557q0 -58 17.5 -76t77.5 -18h30q108 0 180.5 4.5t145.5 19t122 40.5t95.5 69t81 105t65.5 149h39l-82 -459q-156 2 -456 2h-529v209q-92 -115 -223.5 -175.5t-290.5 -60.5q-117 0 -228.5 32.5t-209 98 t-171 156.5t-115.5 217.5t-42 272.5zM369 750q0 -315 139 -509t360 -194t360.5 194t139.5 509t-139.5 508.5t-360.5 193.5t-360 -193.5t-139 -508.5z" />
<glyph unicode="&#x153;" horiz-adv-x="1947" d="M80 549q0 157 69 287.5t192.5 207t274.5 76.5q133 0 243.5 -62.5t178.5 -172.5q70 109 177 172t231 63q91 0 167.5 -27.5t135 -81t91.5 -139.5t34 -196h-731v-53q0 -219 114.5 -344t296.5 -125q180 0 291 108l25 -20q-159 -269 -430 -269q-280 0 -412 217 q-66 -102 -168.5 -159.5t-230.5 -57.5q-109 0 -209 43t-175.5 117.5t-120 183t-44.5 232.5zM311 621q0 -65 10.5 -137.5t36 -151t63 -140.5t98 -102.5t134.5 -40.5q142 0 211.5 112.5t69.5 313.5q0 65 -10 136.5t-35.5 150t-62.5 140.5t-97 102t-133 40 q-144 0 -214.5 -111.5t-70.5 -311.5zM1147 756h489q2 128 -59 208t-172 80q-96 0 -170.5 -73.5t-87.5 -214.5z" />
<glyph unicode="&#x178;" horiz-adv-x="1486" d="M8 1448v37h602v-37q-71 -8 -108 -25t-46 -48.5t19 -78.5l330 -594l268 457q65 110 77 171.5t-17.5 86.5t-104.5 31v37h451v-37q-86 -14 -142.5 -61.5t-126.5 -167.5l-366 -625v-295q-1 -57 1 -91t11 -64.5t22.5 -46.5t41 -29t61.5 -18.5t88 -10.5v-39h-690v39 q54 5 88 10.5t61 19t40.5 28.5t22.5 46t11 65t2 91v285l-383 667q-63 110 -103 147.5t-110 49.5zM438 1761q0 56 37 93.5t94 37.5q53 0 90 -38t37 -93q0 -56 -37 -93.5t-90 -37.5q-57 0 -94 37t-37 94zM903 1761q0 56 37 93.5t94 37.5q53 0 91 -38t38 -93q0 -56 -38 -93.5 t-91 -37.5q-57 0 -94 37t-37 94z" />
<glyph unicode="&#x2c6;" horiz-adv-x="741" d="M35 1235l323 346h27l324 -346h-41l-297 166l-297 -166h-39z" />
<glyph unicode="&#x2dc;" horiz-adv-x="765" d="M55 1300q0 67 18.5 128t64 106t110.5 45q39 0 84.5 -20t79.5 -44.5t74.5 -44.5t70.5 -20q56 0 83 29t30 94h39q-2 -268 -177 -268q-46 0 -93 20t-79 44.5t-73.5 44.5t-77.5 20q-50 0 -80.5 -35.5t-34.5 -98.5h-39z" />
<glyph unicode="&#x2000;" horiz-adv-x="997" />
<glyph unicode="&#x2001;" horiz-adv-x="1995" />
<glyph unicode="&#x2002;" horiz-adv-x="997" />
<glyph unicode="&#x2003;" horiz-adv-x="1995" />
<glyph unicode="&#x2004;" horiz-adv-x="665" />
<glyph unicode="&#x2005;" horiz-adv-x="498" />
<glyph unicode="&#x2006;" horiz-adv-x="332" />
<glyph unicode="&#x2007;" horiz-adv-x="332" />
<glyph unicode="&#x2008;" horiz-adv-x="249" />
<glyph unicode="&#x2009;" horiz-adv-x="399" />
<glyph unicode="&#x200a;" horiz-adv-x="110" />
<glyph unicode="&#x2010;" horiz-adv-x="790" d="M111 475v182h571v-182h-571z" />
<glyph unicode="&#x2011;" horiz-adv-x="790" d="M111 475v182h571v-182h-571z" />
<glyph unicode="&#x2012;" horiz-adv-x="790" d="M111 475v182h571v-182h-571z" />
<glyph unicode="&#x2013;" horiz-adv-x="995" d="M72 498v135h852v-135h-852z" />
<glyph unicode="&#x2014;" horiz-adv-x="1460" d="M72 498v135h1317v-135h-1317z" />
<glyph unicode="&#x2018;" horiz-adv-x="628" d="M150 1128q0 126 89.5 253t215.5 190l14 -23q-75 -57 -126 -134.5t-52 -166.5q59 0 100 -39t41 -98t-40.5 -100t-102.5 -41q-65 0 -102 43.5t-37 115.5z" />
<glyph unicode="&#x2019;" horiz-adv-x="628" d="M115 991q75 57 125.5 134.5t50.5 166.5q-58 2 -99.5 40.5t-41.5 97.5t41 100t102 41q65 0 103 -45t38 -115q0 -125 -89.5 -251t-215.5 -191z" />
<glyph unicode="&#x201a;" horiz-adv-x="724" d="M186 -317q75 57 125.5 134.5t50.5 166.5q-59 2 -100 40t-41 97t41.5 100t102.5 41q65 0 103 -45t38 -115q0 -125 -89.5 -251t-215.5 -191z" />
<glyph unicode="&#x201c;" horiz-adv-x="1026" d="M150 1128q0 126 89.5 253t215.5 190l14 -23q-75 -57 -126 -134.5t-52 -166.5q59 0 100 -39t41 -98t-40.5 -100t-102.5 -41q-65 0 -102 43.5t-37 115.5zM549 1128q0 126 89.5 253t215.5 190l14 -23q-75 -57 -126 -134.5t-52 -166.5q59 0 100 -39t41 -98t-40.5 -100 t-102.5 -41q-65 0 -102 43.5t-37 115.5z" />
<glyph unicode="&#x201d;" horiz-adv-x="1028" d="M115 991q75 57 125.5 134.5t50.5 166.5q-58 2 -99.5 40.5t-41.5 97.5t41 100t102 41q65 0 103 -45t38 -115q0 -125 -89.5 -251t-215.5 -191zM514 991q75 57 125.5 134.5t50.5 166.5q-58 2 -99.5 40.5t-41.5 97.5t41 100t102 41q65 0 103.5 -45t38.5 -115q0 -125 -90 -251 t-216 -191z" />
<glyph unicode="&#x201e;" horiz-adv-x="1165" d="M186 -317q75 57 125.5 134.5t50.5 166.5q-59 2 -100 40t-41 97t41.5 100t102.5 41q65 0 103 -45t38 -115q0 -125 -89.5 -251t-215.5 -191zM627 -317q75 57 125.5 134.5t50.5 166.5q-59 2 -100 40t-41 97t41 100t102 41q65 0 103 -45t38 -115q0 -125 -89.5 -251 t-215.5 -191z" />
<glyph unicode="&#x2022;" horiz-adv-x="929" d="M90 580q0 152 108 260t259 108q162 0 272.5 -107.5t110.5 -260.5q0 -161 -110 -271t-273 -110q-152 0 -259.5 110.5t-107.5 270.5z" />
<glyph unicode="&#x2026;" horiz-adv-x="2187" d="M213 125q0 61 45 106t107 45q63 0 107 -44.5t44 -106.5t-44 -107t-107 -45q-61 0 -106.5 45.5t-45.5 106.5zM942 125q0 61 45 106t107 45q63 0 107 -44.5t44 -106.5t-44 -107t-107 -45q-62 0 -107 45.5t-45 106.5zM1671 125q0 61 45 106t107 45q63 0 107 -44.5t44 -106.5 t-44 -107t-107 -45q-61 0 -106.5 45.5t-45.5 106.5z" />
<glyph unicode="&#x202f;" horiz-adv-x="399" />
<glyph unicode="&#x2039;" horiz-adv-x="739" d="M68 559l419 479h101l-269 -479l269 -481h-101z" />
<glyph unicode="&#x203a;" horiz-adv-x="741" d="M152 78l270 481l-270 479h102l420 -479l-420 -481h-102z" />
<glyph unicode="&#x205f;" horiz-adv-x="498" />
<glyph unicode="&#x20ac;" horiz-adv-x="1579" d="M-16 545l82 123h163q-2 27 -2 82q0 69 4 104h-247l82 123h184q53 255 218.5 399t416.5 144q230 0 394 -129.5t200 -354.5h-211q-23 195 -117 302.5t-266 107.5q-156 0 -263.5 -122.5t-144.5 -346.5h529l-84 -123h-459q-2 -35 -2 -104q0 -55 2 -82h375l-84 -123h-281 q34 -235 141 -366.5t265 -131.5q182 0 276.5 105.5t120.5 306.5h211q-25 -155 -112 -266.5t-213 -165.5t-279 -54q-266 0 -430 152.5t-209 419.5h-260z" />
<glyph unicode="&#x2122;" horiz-adv-x="1794" d="M37 1360v125h670v-125h-269v-707h-135v707h-266zM793 653v832h229l233 -670l226 670h229v-832h-135v693l-248 -693h-151l-250 693v-693h-133z" />
<glyph unicode="&#x25fc;" horiz-adv-x="1105" d="M0 0v1106h1106v-1106h-1106z" />
<glyph unicode="&#xfb01;" horiz-adv-x="1529" d="M68 1020v82h176v22q0 114 39 212t104 164t151.5 103t180.5 37q92 0 152.5 -46.5t60.5 -106.5q0 -44 -31.5 -72.5t-77.5 -28.5q-54 0 -80 37l-71 105q-20 31 -51 31q-30 0 -65.5 -13.5t-72 -48t-57.5 -84t-16 -131t45 -180.5h346v-82h-340v-725q0 -49 0.5 -77.5t5.5 -58 t10 -44t20 -29.5t29 -21t44 -12.5t58 -8.5t77 -5v-39h-625v37q26 3 44 5.5t35 8.5t28 9.5t20.5 14.5t15 18t10 25.5t6.5 31t3.5 40t1.5 47v58.5v725h-176zM918 0v37q26 3 44 5.5t35 8.5t28 9.5t20.5 14.5t15 18t10 25.5t6 30.5t3 40.5t1.5 47.5v58v455v56t-2 43.5t-2 35.5 t-7 25.5t-9.5 19t-15.5 11.5t-20 8.5t-28.5 3.5t-34 3h-44.5v37l385 127q-5 -273 -5 -448v-377v-58.5t1.5 -47t3.5 -40t6.5 -31t10 -25.5t15 -18t20.5 -14.5t28 -9.5t35 -8.5t44 -5.5v-37h-544zM1028 1513q0 60 45 102t107 42q63 0 106 -42t43 -102q0 -63 -43 -104t-106 -41 t-107.5 41.5t-44.5 103.5z" />
<glyph unicode="&#xfb02;" horiz-adv-x="1531" d="M68 1020v82h176v22q0 114 39 212t104 164t151.5 103t180.5 37q92 0 152.5 -46.5t60.5 -106.5q0 -44 -31.5 -72.5t-77.5 -28.5q-54 0 -80 37l-71 105q-20 31 -51 31q-30 0 -65.5 -13.5t-72 -48t-57.5 -84t-16 -131t45 -180.5h346v-82h-340v-725q0 -49 0.5 -77.5t5.5 -58 t10 -44t20 -29.5t29 -21t44 -12.5t58 -8.5t77 -5v-39h-625v37q26 3 44 5.5t35 8.5t28 9.5t20.5 14.5t15 18t10 25.5t6.5 31t3.5 40t1.5 47v58.5v725h-176zM928 0v37q26 3 44 5.5t35 8.5t28 9.5t20.5 14.5t15 18t10 25.5t6.5 31t3.5 40t1.5 47v58.5v1026v66t-3.5 48.5 t-5.5 36.5t-13.5 23t-18.5 15.5t-30.5 6.5t-39 4.5t-53.5 0.5v37l385 127q-4 -218 -4 -449v-942v-58.5t1.5 -47t3.5 -40t6.5 -31t10 -25.5t15 -18t20.5 -14.5t28 -9.5t35 -8.5t44 -5.5v-37h-545z" />
</font>
</defs>
</svg>
